<?xml version="1.0" encoding="utf-8"?>
<!-- Generator: Adobe Illustrator 27.5.0, SVG Export Plug-In . SVG Version: 6.00 Build 0)  -->
<svg version="1.1" id="Layer_1" xmlns="http://www.w3.org/2000/svg" xmlns:xlink="http://www.w3.org/1999/xlink" x="0px" y="0px"
	 viewBox="0 0 128 128" style="enable-background:new 0 0 128 128;" xml:space="preserve">
<style type="text/css">
	.st0{fill:#363D52;}
	.st1{fill-opacity:0.4;}
</style>
<g transform="translate(32 32)">
	<path class="st0" d="M-16-32c-8.9,0-16,7.1-16,16v96c0,8.9,7.1,16,16,16h96c8.9,0,16-7.1,16-16v-96c0-8.9-7.1-16-16-16H-16z"/>
	<path class="st1" d="M-16-32c-8.9,0-16,7.1-16,16v96c0,8.9,7.1,16,16,16h96c8.9,0,16-7.1,16-16v-96c0-8.9-7.1-16-16-16H-16z
		 M-16-28h96c6.6,0,12,5.4,12,12v96c0,6.6-5.3,12-12,12h-96c-6.6,0-12-5.3-12-12v-96C-28-22.7-22.6-28-16-28z"/>
</g>
<g>
	<path d="M118.7,63.4c0,1.5,0,1.5,0,2.9c-0.1,0.3-0.2,0.6-0.2,0.9c-0.8,5-4.9,9.8-11.1,10.9c-5.2,0.9-11-1.7-13.7-6.3
		c-0.8-1.4-1.4-2.9-1.7-4.5c0-0.2-0.1-0.3-0.2-0.5c-0.5,0.3-0.9,0.5-1.4,0.7c-2.6,1.7-4.4,4-5.9,6.7c-1.4,2.7-2.2,5.6-2.6,8.6
		c-0.1,0.7-0.2,1.5-0.4,2.2c-0.2,1.1-0.9,1.7-1.7,1.6c-0.9-0.1-1.4-0.7-1.6-1.9c-0.2-1.9-0.2-3.8-0.6-5.7
		c-1.1-6.2-3.4-11.8-7.3-16.7c-1.6-2-3.5-3.6-5.8-4.8c-3.8-1.9-7.6-1.5-11.1,0.8c-3.3,2.1-5.6,5.1-7.5,8.5
		c-2.3,4.1-3.8,8.4-4.4,13.1c-0.2,1.2-0.2,2.4-0.3,3.6c-0.1,0.6-0.1,1.2-0.2,1.8c-0.2,0.7-0.8,1.2-1.5,1.2c-0.7,0-1.3-0.4-1.5-1.1
		c-0.2-0.6-0.3-1.3-0.3-1.9c-0.1-5.2-1.3-10.3-3-15.2C33.1,63.1,30.5,58.3,27,54c-2.2-2.7-4.7-5.2-7.7-7c-2.4-1.4-4.9-2.2-7.7-2.3
		c-0.9,0-1.6-0.4-2.2-1.1c0-0.5,0-0.9,0-1.4c1.4-1.4,3-1,4.6-0.7c4.2,0.7,7.9,2.7,11.1,5.5c5.3,4.6,9,10.2,11.7,16.6
		c1.2,2.9,2.2,5.9,3.3,8.8c0.1-0.2,0.2-0.4,0.3-0.7c0.8-1.8,1.4-3.6,2.3-5.3c2.1-4,4.7-7.6,8.4-10.3c2.8-2.1,6-3.3,9.5-3.2
		c2.8,0.1,5.4,1.1,7.7,2.7c3.7,2.5,6.4,5.9,8.5,9.7c1.5,2.7,2.5,5.5,3.5,8.4c0.1,0.3,0.3,0.6,0.5,1.1c0.5-0.9,0.9-1.7,1.2-2.4
		c1-1.9,2.1-3.8,3.8-5.3c1-0.9,2.1-1.6,3.2-2.4c0.4-0.3,0.9-0.5,1.4-0.8c1.3-0.6,1.9-1.4,2.3-2.8c1.6-6.6,8-10.3,13.6-9.9
		c5.4,0.4,9.2,3.1,11.6,8c0.5,1,0.9,1.7,1,2.8L118.7,63.4z M105.2,54.8c-6,0-9.8,4.5-10.1,9.2c-0.5,7,4.6,10.9,10,11
		c6.1,0,10.1-4.5,10.2-9.8C115.5,59.5,111.2,54.7,105.2,54.8z"/>
</g>
</svg>
