<?xml version="1.0" encoding="utf-8"?>
<!-- Generator: Adobe Illustrator 19.0.0, SVG Export Plug-In . SVG Version: 6.00 Build 0)  -->
<svg version="1.1" id="Layer_1" xmlns="http://www.w3.org/2000/svg" xmlns:xlink="http://www.w3.org/1999/xlink" x="0px" y="0px"
	 viewBox="0 0 51 51" style="enable-background:new 0 0 51 51;" xml:space="preserve">
<style type="text/css">
	.st0{fill:#FFFFFF;}
</style>
<g id="XMLID_1_">
	<path id="XMLID_79_" class="st0" d="M40.8,17.6c-6.8,0-13.7,0-20.6,0c0-1.3,0-2.6,0-4.1c6.9,0,13.7,0,20.6,0
		C40.8,14.9,40.8,16.3,40.8,17.6z"/>
	<path id="XMLID_76_" class="st0" d="M40.8,27.5c-6.8,0-13.7,0-20.6,0c0-1.3,0-2.6,0-4c6.9,0,13.7,0,20.6,0
		C40.8,24.8,40.8,26.2,40.8,27.5z"/>
	<path id="XMLID_73_" class="st0" d="M40.8,37.4c-6.8,0-13.7,0-20.6,0c0-1.3,0-2.6,0-4c6.9,0,13.7,0,20.6,0
		C40.8,34.7,40.8,36.1,40.8,37.4z"/>
	<path id="XMLID_70_" class="st0" d="M17.6,12c0,2.4,0,4.7,0,7.2c-2.5,0-5,0-7.4,0c0-2.4,0-4.8,0-7.2C12.7,12,15.1,12,17.6,12z"/>
	<path id="XMLID_67_" class="st0" d="M10.2,21.9c2.4,0,4.8,0,7.3,0c0,2.4,0,4.7,0,7.2c-2.4,0-4.9,0-7.3,0
		C10.2,26.7,10.2,24.3,10.2,21.9z"/>
	<path id="XMLID_64_" class="st0" d="M10.2,31.8c2.4,0,4.9,0,7.4,0c0,2.4,0,4.8,0,7.2c-2.5,0-4.9,0-7.4,0
		C10.2,36.6,10.2,34.2,10.2,31.8z"/>
</g>
</svg>
