<?xml version="1.0" encoding="UTF-8"?>
<svg id="a" data-name="Layer 1" xmlns="http://www.w3.org/2000/svg" width="49.02" height="42.23" viewBox="0 0 49.02 42.23">
  <defs>
    <style>
      .b, .c {
        fill: #fff;
        stroke: #00ffa5;
        stroke-miterlimit: 10;
      }

      .c {
        stroke-width: 2px;
      }
    </style>
  </defs>
  <path class="b" d="m37.08,13.26l5.36,2.65C39.57,5.98,29.2.25,19.27,3.12c-6.53,1.88-11.53,7.16-13.05,13.79-.06.52-.53.89-1.05.83s-.89-.53-.83-1.05c0-.06.02-.13.04-.19C6.94,5.39,18-1.53,29.09,1.03c7.23,1.67,13,7.09,15.12,14.2l2.58-5.22c.3-.42.89-.52,1.32-.22.32.23.47.65.36,1.03l-3.62,7.35c-.23.46-.79.66-1.26.43l-7.36-3.64c-.47-.23-.66-.8-.43-1.27.23-.47.8-.66,1.27-.43h0ZM.6,30.89c-.23.47-.04,1.03.43,1.27.47.23,1.03.04,1.27-.43l2.4-4.84c3.19,10.93,14.63,17.21,25.56,14.02,7.17-2.09,12.65-7.89,14.32-15.17.14-.5-.15-1.02-.65-1.17-.5-.14-1.02.15-1.17.65,0,.03-.02.06-.02.1-2.31,10.07-12.36,16.37-22.43,14.05-6.87-1.58-12.28-6.89-13.98-13.73l5.67,2.82c.43.3,1.02.2,1.32-.23.3-.43.2-1.02-.23-1.32-.07-.05-.15-.09-.24-.12l-7.35-3.67c-.47-.23-1.03-.04-1.26.43l-3.63,7.35Z"/>
  <line class="c" x1="24.51" y1="10.48" x2="24.51" y2="31.75"/>
  <line class="c" x1="35.14" y1="21.12" x2="13.87" y2="21.12"/>
</svg>