<?xml version="1.0" encoding="utf-8"?>
<!-- Generator: Adobe Illustrator 27.8.1, SVG Export Plug-In . SVG Version: 6.00 Build 0)  -->
<svg version="1.1" id="a" xmlns="http://www.w3.org/2000/svg" xmlns:xlink="http://www.w3.org/1999/xlink" x="0px" y="0px"
	 viewBox="0 0 506 506" style="enable-background:new 0 0 506 506;" xml:space="preserve">
<style type="text/css">
	.st0{fill:#FFFFFF;}
	.st1{fill:none;stroke:#FFFFFF;stroke-width:25;stroke-miterlimit:10;}
</style>
<path class="st0" d="M253,25c30.8,0,60.6,6,88.7,17.9c27.1,11.5,51.5,27.9,72.5,48.9c21,20.9,37.4,45.3,48.9,72.5
	C475,192.4,481,222.2,481,253s-6,60.6-17.9,88.7c-11.5,27.1-27.9,51.5-48.9,72.5c-21,21-45.3,37.4-72.5,48.9
	C313.6,475,283.8,481,253,481s-60.6-6-88.7-17.9c-27.1-11.5-51.5-27.9-72.5-48.9c-21-21-37.4-45.3-48.9-72.5
	C31,313.6,25,283.8,25,253s6-60.6,17.9-88.7c11.5-27.1,27.9-51.5,48.9-72.5c21-21,45.3-37.4,72.5-48.9C192.4,31,222.2,25,253,25
	 M253,0C113.3,0,0,113.3,0,253s113.3,253,253,253s253-113.3,253-253S392.7,0,253,0C253,0,253,0,253,0z"/>
<line class="st1" x1="253" y1="91" x2="253" y2="415"/>
<line class="st1" x1="415" y1="253" x2="91" y2="253"/>
</svg>
