<?xml version="1.0" encoding="UTF-8"?>
<svg id="a" data-name="Layer 1" xmlns="http://www.w3.org/2000/svg" width="421.92" height="512" viewBox="0 0 421.92 512">
  <defs>
    <style>
      .b {
        fill: #fff;
        stroke-width: 0px;
      }
    </style>
  </defs>
  <path class="b" d="M60.13,512C28.02,506.46.23,477.36.16,444.75c-.2-101.5-.23-202.99,0-304.49.09-37.02,31.05-67.14,68.01-67.15,54.5,0,109.01.02,163.51-.01,15.63,0,28.9,5.63,39.91,16.6,24.32,24.24,48.61,48.51,72.83,72.83,10.96,11,16.61,24.28,16.6,39.92-.03,64.66-.01,129.33-.01,193.99v7.46c3.5-1.45,6.35-2.27,8.83-3.7,12.83-7.39,17.94-18.89,17.93-33.36-.07-88.83-.04-177.66-.04-266.49,0-9.83.06-19.67-.01-29.5-.17-22.09-14.76-36.59-36.78-36.59-77.84,0-155.68.02-233.52-.02-11.15,0-20.44,3.81-27.83,12.26-.99,1.13-2.62,2.37-3.97,2.39-11.65.19-23.31.11-35.49.11.65-1.97,1.08-3.53,1.68-5.03,7.27-18.26,17.56-29.62,35.05-38.53C92.1,2.78,103.04,0,108.98,0h254c33.16,5.8,58.88,35.13,58.9,68.78.04,100.48.05,200.96,0,301.44-.02,33.04-23.28,61.23-55.77,67.37-4.38.83-5.08,2.45-5.19,6.42-.71,27.57-13.46,47.99-37.88,60.6-6.8,3.51-17.28,7.39-25.04,7.39H60.13ZM34.24,292.72c0,48.99-.01,97.99,0,146.98,0,23.79,14.2,38.03,37.86,38.03,72.33,0,144.66,0,216.99,0,23.69,0,37.89-14.23,37.89-37.99,0-78.16,0-156.31,0-234.47,0-1.33.01-2.67-.02-4-.08-4.07-1.45-6.26-6.25-6.12-11.66.34-23.33.2-35,.09-28.91-.27-49.98-21.57-50-50.47,0-10.5-.25-21.01.11-31.49.17-4.87-1.37-6.14-6.17-6.12-53.16.16-106.33.08-159.5.16-3.46,0-7.02.39-10.35,1.29-15.91,4.26-25.55,17.72-25.56,35.63-.04,49.49-.02,98.99-.02,148.48Z"/>
  <path class="b" d="M181,374.12c29.32,0,58.65-.04,87.97.02,12.06.02,20.24,6.24,22.27,16.67,2.05,10.51-5.01,21.07-15.58,23.14-2.43.48-4.96.7-7.44.7-58.48.04-116.96.05-175.44.02-13.85,0-23.01-8.09-23.06-20.15-.05-11.81,8.83-20.29,21.81-20.36,22.49-.13,44.98-.04,67.48-.04,7.33,0,14.66,0,21.99,0Z"/>
  <path class="b" d="M181.03,286.99c29.65,0,59.3,0,88.95,0,12.54,0,21.67,8.39,21.69,19.85.02,11.49-9.11,20.14-21.49,20.15-59.63.03-119.27.03-178.9,0-12.62,0-21.52-8.31-21.55-19.94-.04-11.75,8.76-20.05,21.35-20.06,29.98-.02,59.97,0,89.95,0Z"/>
  <path class="b" d="M141.98,199.32c17.33,0,34.65-.08,51.98.03,10.26.07,18.15,6.3,20.47,15.79,2.07,8.5-1.95,17.75-10.19,21.82-3.3,1.63-7.29,2.59-10.98,2.61-33.98.19-67.97.16-101.95.09-12.63-.02-21.51-8.38-21.58-20.02-.07-11.88,8.86-20.27,21.78-20.3,16.83-.05,33.65-.01,50.48-.01Z"/>
</svg>