<?xml version="1.0" encoding="utf-8"?>
<!-- Generator: Adobe Illustrator 27.9.4, SVG Export Plug-In . SVG Version: 9.03 Build 54784)  -->
<svg version="1.1" id="a" xmlns="http://www.w3.org/2000/svg" xmlns:xlink="http://www.w3.org/1999/xlink" x="0px" y="0px"
	 viewBox="0 0 49 42.2" style="enable-background:new 0 0 49 42.2;" xml:space="preserve">
<style type="text/css">
	.st0{fill:#FFFFFF;stroke:#FFFFFF;stroke-width:0.25;stroke-miterlimit:10;}
	.st1{fill:none;stroke:#FFFFFF;stroke-width:2;stroke-miterlimit:10;}
</style>
<path class="st0" d="M37.1,13.3l5.4,2.6C39.6,6,29.2,0.2,19.3,3.1C12.7,5,7.7,10.3,6.2,16.9c-0.1,0.5-0.5,0.9-1.1,0.8
	s-0.9-0.5-0.8-1c0-0.1,0-0.1,0-0.2C6.9,5.4,18-1.5,29.1,1c7.2,1.7,13,7.1,15.1,14.2l2.6-5.2c0.3-0.4,0.9-0.5,1.3-0.2
	c0.3,0.2,0.5,0.6,0.4,1l-3.6,7.4c-0.2,0.5-0.8,0.7-1.3,0.4L36.2,15c-0.5-0.2-0.7-0.8-0.4-1.3C36,13.2,36.6,13,37.1,13.3L37.1,13.3
	L37.1,13.3z M0.6,30.9c-0.2,0.5,0,1,0.4,1.3c0.5,0.2,1,0,1.3-0.4l2.4-4.8c3.2,10.9,14.6,17.2,25.6,14c7.2-2.1,12.6-7.9,14.3-15.2
	c0.1-0.5-0.2-1-0.7-1.2c-0.5-0.1-1,0.1-1.2,0.6c0,0,0,0.1,0,0.1c-2.3,10.1-12.4,16.4-22.4,14c-6.9-1.6-12.3-6.9-14-13.7l5.7,2.8
	c0.4,0.3,1,0.2,1.3-0.2c0.3-0.4,0.2-1-0.2-1.3c-0.1,0-0.1-0.1-0.2-0.1l-7.3-3.7c-0.5-0.2-1,0-1.3,0.4L0.6,30.9L0.6,30.9z"/>
<line class="st1" x1="24.5" y1="10.5" x2="24.5" y2="31.8"/>
<line class="st1" x1="35.1" y1="21.1" x2="13.9" y2="21.1"/>
</svg>
