<?xml version="1.0" encoding="UTF-8"?>
<svg id="a" data-name="Layer 1" xmlns="http://www.w3.org/2000/svg" viewBox="0 0 44.56 55.16">
  <defs>
    <style>
      .b {
        fill: #fff;
      }
    </style>
  </defs>
  <path class="b" d="m34.04,55.16H10.52c-4.11,0-7.46-3.35-7.46-7.46V15.19c0-1.06.86-1.93,1.93-1.93h34.59c1.06,0,1.93.86,1.93,1.93v32.52c0,4.11-3.35,7.46-7.46,7.46ZM6.91,17.11v30.59c0,1.99,1.62,3.61,3.61,3.61h23.52c1.99,0,3.61-1.62,3.61-3.61v-30.59H6.91Z"/>
  <path class="b" d="m42.63,17.11H1.93c-1.06,0-1.93-.86-1.93-1.93v-2.71c0-3.64,2.96-6.6,6.6-6.6h31.36c3.64,0,6.6,2.96,6.6,6.6v2.71c0,1.06-.86,1.93-1.93,1.93ZM3.85,13.26h36.85v-.78c0-1.51-1.23-2.74-2.74-2.74H6.6c-1.51,0-2.74,1.23-2.74,2.74v.78Z"/>
  <path class="b" d="m29.31,9.73h-14.07c-1.06,0-1.93-.86-1.93-1.93v-1.79c0-3.32,2.7-6.02,6.02-6.02h5.88c3.32,0,6.02,2.7,6.02,6.02v1.79c0,1.06-.86,1.93-1.93,1.93Zm-12.14-3.85h10.21c-.07-1.13-1.01-2.03-2.16-2.03h-5.88c-1.15,0-2.09.9-2.16,2.03Z"/>
  <path class="b" d="m14.42,45.34c-1.06,0-1.93-.86-1.93-1.93v-17.77c0-1.06.86-1.93,1.93-1.93s1.93.86,1.93,1.93v17.77c0,1.06-.86,1.93-1.93,1.93Z"/>
  <path class="b" d="m22.28,45.34c-1.06,0-1.93-.86-1.93-1.93v-17.77c0-1.06.86-1.93,1.93-1.93s1.93.86,1.93,1.93v17.77c0,1.06-.86,1.93-1.93,1.93Z"/>
  <path class="b" d="m30.14,45.34c-1.06,0-1.93-.86-1.93-1.93v-17.77c0-1.06.86-1.93,1.93-1.93s1.93.86,1.93,1.93v17.77c0,1.06-.86,1.93-1.93,1.93Z"/>
</svg>