<?xml version="1.0" encoding="utf-8"?>
<!-- Generator: Adobe Illustrator 27.5.0, SVG Export Plug-In . SVG Version: 6.00 Build 0)  -->
<svg version="1.1" id="Layer_1" xmlns="http://www.w3.org/2000/svg" xmlns:xlink="http://www.w3.org/1999/xlink" x="0px" y="0px"
	 viewBox="0 0 20.3 22.1" style="enable-background:new 0 0 20.3 22.1;" xml:space="preserve">
<style type="text/css">
	.st0{fill:#FFFFFF;}
</style>
<path class="st0" d="M3.9,17.2c0.1,0,0.1,0,0.2,0l4.2-0.7c0.1,0,0.1,0,0.1-0.1L19.1,5.8c0.1-0.1,0.1-0.3,0-0.4l-4.2-4.2
	c0,0-0.1-0.1-0.2-0.1c-0.1,0-0.1,0-0.2,0.1L3.9,11.9L3.8,12l-0.7,4.2c0,0.3,0,0.5,0.2,0.7C3.5,17.1,3.7,17.2,3.9,17.2z M5.6,12.8
	l9.1-9.1l1.8,1.8l-9.1,9.1L5.2,15L5.6,12.8L5.6,12.8z M16.2,21.2H1.9c-0.6,0-1.1-0.5-1.1-1.1S1.3,19,1.9,19h14.3
	c0.6,0,1.1,0.5,1.1,1.1C17.3,20.7,16.8,21.2,16.2,21.2z"/>
</svg>
