<?xml version="1.0" encoding="utf-8"?>
<!-- Generator: Adobe Illustrator 27.5.0, SVG Export Plug-In . SVG Version: 6.00 Build 0)  -->
<svg version="1.1" id="Layer_1" xmlns="http://www.w3.org/2000/svg" xmlns:xlink="http://www.w3.org/1999/xlink" x="0px" y="0px"
	 viewBox="0 0 30 30" style="enable-background:new 0 0 30 30;" xml:space="preserve">
<style type="text/css">
	.st0{fill:none;stroke:#FFFFFF;stroke-linecap:round;stroke-linejoin:round;}
</style>
<g id="Layer_2_00000134232344077047093690000015401458216004329392_">
	<g id="Workspace">
		<path class="st0" d="M12,6.4L12.4,3h5.1L18,6.4c1.1,0.4,2,1,2.9,1.7l3.1-1.3l2.6,4.4L24,13.2c0.2,1.1,0.2,2.3,0,3.4l2.7,2.1
			l-2.6,4.4l-3.1-1.3c-0.4,0.4-0.9,0.7-1.4,1c-0.5,0.3-1,0.5-1.5,0.7L17.6,27h-5.1L12,23.6c-1.1-0.4-2-1-2.9-1.7l-3.1,1.3l-2.6-4.4
			l2.7-2c-0.2-1.1-0.2-2.3,0-3.4l-2.7-2l2.6-4.4L9.1,8c0.4-0.4,0.9-0.7,1.4-1C10.9,6.8,11.4,6.6,12,6.4z"/>
		<circle class="st0" cx="15" cy="15" r="4.3"/>
	</g>
</g>
</svg>
