<?xml version="1.0" encoding="UTF-8"?>
<svg id="a" data-name="svg2" xmlns="http://www.w3.org/2000/svg" width="776.03" height="236.7" viewBox="0 0 776.03 236.7">
  <defs>
    <style>
      .dc, .dd, .de, .df, .dg, .dh, .di, .dj {
        stroke-width: 0px;
      }

      .dd {
        fill: #e9f1f0;
      }

      .dd, .de, .df, .dg, .dh, .di, .dj {
        fill-rule: evenodd;
      }

      .de {
        fill: #fff;
      }

      .df {
        fill: #a8d1b1;
      }

      .dg {
        fill: #a97ca9;
      }

      .dh {
        fill: #e8a8a5;
      }

      .di {
        fill: #edc07d;
      }

      .dj {
        fill: #97c5d5;
      }
    </style>
  </defs>
  <path id="b" data-name="path9" class="dd" d="m24.97,0h728.09c12.98,0,22.97,8.99,22.97,21.97v191.76c0,11.98-9.99,22.97-22.97,22.97H24.97c-13.98,0-24.97-10.99-24.97-22.97V21.97C0,8.99,10.99,0,24.97,0Z"/>
  <path id="c" data-name="path11" class="de" d="m37.95,79.9h19.97c1,0,3,1,3,3v16.98c0,2-2,3-3,3h-19.97c-2,0-3-1-3-3v-16.98c0-2,1-3,3-3Z"/>
  <path id="d" data-name="path13" class="di" d="m67.91,79.9h19.97c2,0,3,1,3,3v16.98c0,2-1,3-3,3h-19.97c-2,0-3-1-3-3v-16.98c0-2,1-3,3-3Z"/>
  <path id="e" data-name="path15" class="di" d="m96.88,79.9h19.97c2,0,3,1,3,3v16.98c0,2-1,3-3,3h-19.97c-1,0-2-1-2-3v-16.98c0-2,1-3,2-3Z"/>
  <path id="f" data-name="path17" class="di" d="m126.84,79.9h19.97c2,0,3,1,3,3v16.98c0,2-1,3-3,3h-19.97c-2,0-3-1-3-3v-16.98c0-2,1-3,3-3Z"/>
  <path id="g" data-name="path19" class="di" d="m156.8,79.9h19.97c2,0,3,1,3,3v16.98c0,2-1,3-3,3h-19.97c-1,0-3-1-3-3v-16.98c0-2,2-3,3-3Z"/>
  <path id="h" data-name="path21" class="di" d="m186.77,79.9h18.98c2,0,3,1,3,3v16.98c0,2-1,3-3,3h-18.98c-1,0-3-1-3-3v-16.98c0-2,2-3,3-3Z"/>
  <path id="i" data-name="path23" class="di" d="m215.73,79.9h19.97c2,0,3,1,3,3v16.98c0,2-1,3-3,3h-19.97c-1,0-3-1-3-3v-16.98c0-2,2-3,3-3Z"/>
  <path id="j" data-name="path25" class="di" d="m245.69,79.9h19.97c2,0,3,1,3,3v16.98c0,2-1,3-3,3h-19.97c-1,0-3-1-3-3v-16.98c0-2,2-3,3-3Z"/>
  <path id="k" data-name="path27" class="di" d="m275.65,79.9h18.98c2,0,3,1,3,3v16.98c0,2-1,3-3,3h-18.98c-1,0-3-1-3-3v-16.98c0-2,2-3,3-3Z"/>
  <path id="l" data-name="path29" class="di" d="m304.62,79.9h19.97c2,0,3,1,3,3v16.98c0,2-1,3-3,3h-19.97c-1,0-3-1-3-3v-16.98c0-2,2-3,3-3Z"/>
  <path id="m" data-name="path31" class="di" d="m334.58,79.9h19.97c2,0,3,1,3,3v16.98c0,2-1,3-3,3h-19.97c-1,0-3-1-3-3v-16.98c0-2,2-3,3-3Z"/>
  <path id="n" data-name="path33" class="di" d="m364.54,79.9h19.97c1,0,2,1,2,3v16.98c0,2-1,3-2,3h-19.97c-1,0-3-1-3-3v-16.98c0-2,2-3,3-3Z"/>
  <path id="o" data-name="path35" class="de" d="m393.51,79.9h19.97c2,0,3,1,3,3v16.98c0,2-1,3-3,3h-19.97c-1,0-2-1-2-3v-16.98c0-2,1-3,2-3Z"/>
  <path id="p" data-name="path37" class="de" d="m423.47,79.9h19.97c2,0,3,1,3,3v16.98c0,2-1,3-3,3h-19.97c-1,0-2-1-2-3v-16.98c0-2,1-3,2-3Z"/>
  <path id="q" data-name="path39" class="df" d="m453.43,79.9h19.97c2,0,3,1,3,3v16.98c0,2-1,3-3,3h-19.97c-1,0-2-1-2-3v-16.98c0-2,1-3,2-3Z"/>
  <path id="r" data-name="path41" class="dj" d="m85.89,104.87h18.98c2,0,3,1,3,3v17.98c0,1-1,3-3,3h-18.98c-1,0-3-2-3-3v-17.98c0-2,2-3,3-3Z"/>
  <path id="s" data-name="path43" class="dj" d="m114.86,104.87h19.97c2,0,3,1,3,3v17.98c0,1-1,3-3,3h-19.97c-1,0-3-2-3-3v-17.98c0-2,2-3,3-3Z"/>
  <path id="t" data-name="path45" class="dj" d="m144.82,104.87h19.97c2,0,3,1,3,3v17.98c0,1-1,3-3,3h-19.97c-1,0-3-2-3-3v-17.98c0-2,2-3,3-3Z"/>
  <path id="u" data-name="path47" class="dj" d="m174.78,104.87h18.98c2,0,3,1,3,3v17.98c0,1-1,3-3,3h-18.98c-1,0-3-2-3-3v-17.98c0-2,2-3,3-3Z"/>
  <path id="v" data-name="path49" class="de" d="m203.74,104.87h19.97c2,0,3,1,3,3v17.98c0,1-1,3-3,3h-19.97c-1,0-2-2-2-3v-17.98c0-2,1-3,2-3Z"/>
  <path id="w" data-name="path51" class="de" d="m233.71,104.87h19.97c2,0,3,1,3,3v17.98c0,1-1,3-3,3h-19.97c-1,0-2-2-2-3v-17.98c0-2,1-3,2-3Z"/>
  <path id="x" data-name="path53" class="de" d="m263.67,104.87h19.97c2,0,3,1,3,3v17.98c0,1-1,3-3,3h-19.97c-1,0-2-2-2-3v-17.98c0-2,1-3,2-3Z"/>
  <path id="y" data-name="path55" class="de" d="m292.63,104.87h19.97c2,0,3,1,3,3v17.98c0,1-1,3-3,3h-19.97c-1,0-2-2-2-3v-17.98c0-2,1-3,2-3Z"/>
  <path id="z" data-name="path57" class="de" d="m322.6,104.87h19.97c2,0,3,1,3,3v17.98c0,1-1,3-3,3h-19.97c-1,0-2-2-2-3v-17.98c0-2,1-3,2-3Z"/>
  <path id="aa" data-name="path59" class="de" d="m352.56,104.87h19.97c2,0,3,1,3,3v17.98c0,1-1,3-3,3h-19.97c-1,0-2-2-2-3v-17.98c0-2,1-3,2-3Z"/>
  <path id="ab" data-name="path61" class="de" d="m382.52,104.87h18.98c2,0,3,1,3,3v17.98c0,1-1,3-3,3h-18.98c-1,0-2-2-2-3v-17.98c0-2,1-3,2-3Z"/>
  <path id="ac" data-name="path63" class="de" d="m411.48,104.87h19.97c2,0,3,1,3,3v17.98c0,1-1,3-3,3h-19.97c-1,0-2-2-2-3v-17.98c0-2,1-3,2-3Z"/>
  <path id="ad" data-name="path65" class="dh" d="m93.88,130.84h18.98c1,0,3,1,3,2v18.98c0,1-2,2-3,2h-18.98c-2,0-3-1-3-2v-18.98c0-1,1-2,3-2Z"/>
  <path id="ae" data-name="path67" class="dh" d="m122.85,130.84h19.97c1,0,3,1,3,2v18.98c0,1-2,2-3,2h-19.97c-2,0-3-1-3-2v-18.98c0-1,1-2,3-2Z"/>
  <path id="af" data-name="path69" class="dh" d="m152.81,130.84h19.97c2,0,3,1,3,2v18.98c0,1-1,2-3,2h-19.97c-2,0-3-1-3-2v-18.98c0-1,1-2,3-2Z"/>
  <path id="ag" data-name="path71" class="dh" d="m182.77,130.84h18.98c2,0,3,1,3,2v18.98c0,1-1,2-3,2h-18.98c-2,0-3-1-3-2v-18.98c0-1,1-2,3-2Z"/>
  <path id="ah" data-name="path73" class="de" d="m211.73,130.84h19.97c2,0,3,1,3,2v18.98c0,1-1,2-3,2h-19.97c-2,0-3-1-3-2v-18.98c0-1,1-2,3-2Z"/>
  <path id="ai" data-name="path75" class="de" d="m241.7,130.84h19.97c2,0,3,1,3,2v18.98c0,1-1,2-3,2h-19.97c-1,0-3-1-3-2v-18.98c0-1,2-2,3-2Z"/>
  <path id="aj" data-name="path77" class="de" d="m271.66,130.84h18.98c2,0,3,1,3,2v18.98c0,1-1,2-3,2h-18.98c-1,0-3-1-3-2v-18.98c0-1,2-2,3-2Z"/>
  <path id="ak" data-name="path79" class="de" d="m300.62,130.84h19.97c2,0,3,1,3,2v18.98c0,1-1,2-3,2h-19.97c-1,0-3-1-3-2v-18.98c0-1,2-2,3-2Z"/>
  <path id="al" data-name="path81" class="de" d="m330.59,130.84h19.97c2,0,3,1,3,2v18.98c0,1-1,2-3,2h-19.97c-1,0-3-1-3-2v-18.98c0-1,2-2,3-2Z"/>
  <path id="am" data-name="path83" class="de" d="m360.55,130.84h19.97c2,0,3,1,3,2v18.98c0,1-1,2-3,2h-19.97c-1,0-3-1-3-2v-18.98c0-1,2-2,3-2Z"/>
  <path id="an" data-name="path85" class="de" d="m389.51,130.84h19.97c2,0,3,1,3,2v18.98c0,1-1,2-3,2h-19.97c-1,0-3-1-3-2v-18.98c0-1,2-2,3-2Z"/>
  <path id="ao" data-name="path87" class="de" d="m103.87,155.8h20.97c1,0,2,2,2,3v16.98c0,2-1,3-2,3h-20.97c-1,0-2-1-2-3v-16.98c0-1,1-3,2-3Z"/>
  <path id="ap" data-name="path89" class="de" d="m133.83,155.8h20.97c1,0,2,2,2,3v16.98c0,2-1,3-2,3h-20.97c-1,0-2-1-2-3v-16.98c0-1,1-3,2-3Z"/>
  <path id="aq" data-name="path91" class="de" d="m163.79,155.8h20.97c1,0,2,2,2,3v16.98c0,2-1,3-2,3h-20.97c-1,0-2-1-2-3v-16.98c0-1,1-3,2-3Z"/>
  <path id="ar" data-name="path93" class="de" d="m223.72,155.8h19.97c1,0,2,2,2,3v16.98c0,2-1,3-2,3h-19.97c-2,0-3-1-3-3v-16.98c0-1,1-3,3-3Z"/>
  <path id="as" data-name="path95" class="de" d="m253.68,155.8h19.97c1,0,2,2,2,3v16.98c0,2-1,3-2,3h-19.97c-2,0-3-1-3-3v-16.98c0-1,1-3,3-3Z"/>
  <path id="at" data-name="path97" class="de" d="m283.64,155.8h18.98c1,0,2,2,2,3v16.98c0,2-1,3-2,3h-18.98c-2,0-3-1-3-3v-16.98c0-1,1-3,3-3Z"/>
  <path id="au" data-name="path99" class="de" d="m312.61,155.8h19.97c1,0,2,2,2,3v16.98c0,2-1,3-2,3h-19.97c-2,0-3-1-3-3v-16.98c0-1,1-3,3-3Z"/>
  <path id="av" data-name="path101" class="de" d="m342.57,155.8h19.97c1,0,2,2,2,3v16.98c0,2-1,3-2,3h-19.97c-2,0-3-1-3-3v-16.98c0-1,1-3,3-3Z"/>
  <path id="aw" data-name="path103" class="de" d="m372.53,155.8h18.98c1,0,2,2,2,3v16.98c0,2-1,3-2,3h-18.98c-2,0-3-1-3-3v-16.98c0-1,1-3,3-3Z"/>
  <path id="ax" data-name="path105" class="df" d="m37.95,38.95h19.97c1,0,3,1,3,3v17.98c0,1-2,3-3,3h-19.97c-2,0-3-2-3-3v-17.98c0-2,1-3,3-3Z"/>
  <path id="ay" data-name="path107" class="de" d="m96.88,38.95h19.97c2,0,3,1,3,3v17.98c0,1-1,3-3,3h-19.97c-1,0-2-2-2-3v-17.98c0-2,1-3,2-3Z"/>
  <path id="az" data-name="path109" class="de" d="m126.84,38.95h19.97c2,0,3,1,3,3v17.98c0,1-1,3-3,3h-19.97c-2,0-3-2-3-3v-17.98c0-2,1-3,3-3Z"/>
  <path id="ba" data-name="path111" class="de" d="m156.8,38.95h19.97c2,0,3,1,3,3v17.98c0,1-1,3-3,3h-19.97c-1,0-3-2-3-3v-17.98c0-2,2-3,3-3Z"/>
  <path id="bb" data-name="path113" class="de" d="m186.77,38.95h18.98c2,0,3,1,3,3v17.98c0,1-1,3-3,3h-18.98c-1,0-3-2-3-3v-17.98c0-2,2-3,3-3Z"/>
  <path id="bc" data-name="path115" class="de" d="m230.71,37.95h19.97c1,0,2,2,2,3v17.98c0,2-1,3-2,3h-19.97c-2,0-3-1-3-3v-17.98c0-1,1-3,3-3Z"/>
  <path id="bd" data-name="path117" class="de" d="m260.67,37.95h19.97c1,0,2,2,2,3v17.98c0,2-1,3-2,3h-19.97c-2,0-3-1-3-3v-17.98c0-1,1-3,3-3Z"/>
  <path id="be" data-name="path119" class="de" d="m289.64,37.95h19.97c1,0,2,2,2,3v17.98c0,2-1,3-2,3h-19.97c-1,0-2-1-2-3v-17.98c0-1,1-3,2-3Z"/>
  <path id="bf" data-name="path121" class="de" d="m319.6,37.95h19.97c1,0,2,2,2,3v17.98c0,2-1,3-2,3h-19.97c-2,0-3-1-3-3v-17.98c0-1,1-3,3-3Z"/>
  <path id="bg" data-name="path123" class="de" d="m363.54,37.95h19.97c1,0,2,2,2,3v17.98c0,2-1,3-2,3h-19.97c-2,0-3-1-3-3v-17.98c0-1,1-3,3-3Z"/>
  <path id="bh" data-name="path125" class="de" d="m392.51,37.95h19.97c1,0,2,2,2,3v17.98c0,2-1,3-2,3h-19.97c-2,0-3-1-3-3v-17.98c0-1,1-3,3-3Z"/>
  <path id="bi" data-name="path127" class="de" d="m422.47,37.95h19.97c1,0,2,2,2,3v17.98c0,2-1,3-2,3h-19.97c-2,0-3-1-3-3v-17.98c0-1,1-3,3-3Z"/>
  <path id="bj" data-name="path129" class="de" d="m452.43,37.95h19.97c1,0,2,2,2,3v17.98c0,2-1,3-2,3h-19.97c-2,0-3-1-3-3v-17.98c0-1,1-3,3-3Z"/>
  <path id="bk" data-name="path131" class="df" d="m511.36,79.9h19.97c1,0,2,1,2,2v17.98c0,1-1,2-2,2h-19.97c-2,0-3-1-3-2v-17.98c0-1,1-2,3-2Z"/>
  <path id="bl" data-name="path133" class="de" d="m541.32,79.9h19.97c1,0,2,1,2,2v17.98c0,1-1,2-2,2h-19.97c-2,0-3-1-3-2v-17.98c0-1,1-2,3-2Z"/>
  <path id="bm" data-name="path135" class="de" d="m571.28,79.9h18.98c1,0,2,1,2,2v17.98c0,1-1,2-2,2h-18.98c-2,0-3-1-3-2v-17.98c0-1,1-2,3-2Z"/>
  <path id="bn" data-name="path137" class="de" d="m509.36,37.95h19.97c2,0,3,2,3,3v17.98c0,2-1,3-3,3h-19.97c-1,0-3-1-3-3v-17.98c0-1,2-3,3-3Z"/>
  <path id="bo" data-name="path139" class="de" d="m539.32,37.95h19.97c2,0,3,2,3,3v17.98c0,2-1,3-3,3h-19.97c-1,0-3-1-3-3v-17.98c0-1,2-3,3-3Z"/>
  <path id="bp" data-name="path141" class="de" d="m569.29,37.95h18.98c2,0,3,2,3,3v17.98c0,2-1,3-3,3h-18.98c-1,0-3-1-3-3v-17.98c0-1,2-3,3-3Z"/>
  <path id="bq" data-name="path143" class="df" d="m511.36,103.87h19.97c1,0,2,2,2,3v17.98c0,2-1,3-2,3h-19.97c-2,0-3-1-3-3v-17.98c0-1,1-3,3-3Z"/>
  <path id="br" data-name="path145" class="df" d="m541.32,103.87h19.97c1,0,2,2,2,3v17.98c0,2-1,3-2,3h-19.97c-2,0-3-1-3-3v-17.98c0-1,1-3,3-3Z"/>
  <path id="bs" data-name="path147" class="de" d="m571.28,103.87h18.98c1,0,2,2,2,3v17.98c0,2-1,3-2,3h-18.98c-2,0-3-1-3-3v-17.98c0-1,1-3,3-3Z"/>
  <path id="bt" data-name="path149" class="di" d="m511.36,180.77h19.97c1,0,2,1,2,2v18.98c0,1-1,2-2,2h-19.97c-2,0-3-1-3-2v-18.98c0-1,1-2,3-2Z"/>
  <path id="bu" data-name="path151" class="de" d="m541.32,180.77h19.97c1,0,2,1,2,2v18.98c0,1-1,2-2,2h-19.97c-2,0-3-1-3-2v-18.98c0-1,1-2,3-2Z"/>
  <path id="bv" data-name="path153" class="di" d="m571.28,180.77h18.98c1,0,2,1,2,2v18.98c0,1-1,2-2,2h-18.98c-2,0-3-1-3-2v-18.98c0-1,1-2,3-2Z"/>
  <path id="bw" data-name="path155" class="di" d="m541.32,155.8h19.97c1,0,2,1,2,3v16.98c0,1-1,3-2,3h-19.97c-2,0-3-2-3-3v-16.98c0-2,1-3,3-3Z"/>
  <path id="bx" data-name="path157" class="de" d="m628.21,79.9h19.97c2,0,3,1,3,2v17.98c0,1-1,2-3,2h-19.97c-1,0-3-1-3-2v-17.98c0-1,2-2,3-2Z"/>
  <path id="by" data-name="path159" class="de" d="m658.18,79.9h18.98c2,0,3,1,3,2v17.98c0,1-1,2-3,2h-18.98c-1,0-3-1-3-2v-17.98c0-1,2-2,3-2Z"/>
  <path id="bz" data-name="path161" class="de" d="m687.14,79.9h19.97c2,0,3,1,3,2v17.98c0,1-1,2-3,2h-19.97c-1,0-3-1-3-2v-17.98c0-1,2-2,3-2Z"/>
  <path id="ca" data-name="path163" class="dg" d="m628.21,103.87h19.97c2,0,3,2,3,3v17.98c0,2-1,3-3,3h-19.97c-1,0-3-1-3-3v-17.98c0-1,2-3,3-3Z"/>
  <path id="cb" data-name="path165" class="dg" d="m658.18,103.87h18.98c2,0,3,2,3,3v17.98c0,2-1,3-3,3h-18.98c-1,0-3-1-3-3v-17.98c0-1,2-3,3-3Z"/>
  <path id="cc" data-name="path167" class="dg" d="m687.14,103.87h19.97c2,0,3,2,3,3v17.98c0,2-1,3-3,3h-19.97c-1,0-3-1-3-3v-17.98c0-1,2-3,3-3Z"/>
  <path id="cd" data-name="path169" class="dg" d="m628.21,129.84h19.97c2,0,3,1,3,3v17.98c0,2-1,3-3,3h-19.97c-1,0-3-1-3-3v-17.98c0-2,2-3,3-3Z"/>
  <path id="ce" data-name="path171" class="dg" d="m658.18,129.84h18.98c2,0,3,1,3,3v17.98c0,2-1,3-3,3h-18.98c-1,0-3-1-3-3v-17.98c0-2,2-3,3-3Z"/>
  <path id="cf" data-name="path173" class="dg" d="m687.14,129.84h19.97c2,0,3,1,3,3v17.98c0,2-1,3-3,3h-19.97c-1,0-3-1-3-3v-17.98c0-2,2-3,3-3Z"/>
  <path id="cg" data-name="path175" class="dg" d="m628.21,155.8h19.97c2,0,3,1,3,3v16.98c0,1-1,3-3,3h-19.97c-1,0-3-2-3-3v-16.98c0-2,2-3,3-3Z"/>
  <path id="ch" data-name="path177" class="dg" d="m658.18,155.8h18.98c2,0,3,1,3,3v16.98c0,1-1,3-3,3h-18.98c-1,0-3-2-3-3v-16.98c0-2,2-3,3-3Z"/>
  <path id="ci" data-name="path179" class="dg" d="m687.14,155.8h19.97c2,0,3,1,3,3v16.98c0,1-1,3-3,3h-19.97c-1,0-3-2-3-3v-16.98c0-2,2-3,3-3Z"/>
  <path id="cj" data-name="path181" class="dg" d="m687.14,180.77h19.97c2,0,3,1,3,2v18.98c0,1-1,2-3,2h-19.97c-1,0-3-1-3-2v-18.98c0-1,2-2,3-2Z"/>
  <path id="ck" data-name="path183" class="de" d="m717.1,79.9h19.97c2,0,3,1,3,2v17.98c0,1-1,2-3,2h-19.97c-1,0-3-1-3-2v-17.98c0-1,2-2,3-2Z"/>
  <path id="cl" data-name="path185" class="df" d="m152.81,180.77h-10.99c-2,0-3,1-3,3v17.98c0,2,1,3,3,3h196.75s1-1,1-3v-17.98c0-2-1-3-1-3h-185.77Z"/>
  <path id="cm" data-name="path187" class="de" d="m381.52,180.77h18.98c1,0,2,1,2,3v17.98c0,2-1,3-2,3h-18.98c-2,0-3-1-3-3v-17.98c0-2,1-3,3-3Z"/>
  <path id="cn" data-name="path189" class="de" d="m410.49,180.77h19.97c1,0,2,1,2,3v17.98c0,2-1,3-2,3h-19.97c-2,0-3-1-3-3v-17.98c0-2,1-3,3-3Z"/>
  <path id="co" data-name="path191" class="de" d="m740.07,106.87c0-1-1-3-3-3h-19.97c-1,0-3,2-3,3v43.94c0,2,2,3,3,3h19.97c2,0,3-1,3-3v-43.94Z"/>
  <path id="cp" data-name="path193" class="de" d="m740.07,158.8c0-2-1-3-3-3h-19.97c-1,0-3,1-3,3v42.95c0,1,2,2,3,2h19.97c2,0,3-1,3-2v-42.95Z"/>
  <path id="cq" data-name="path195" class="de" d="m192.76,155.8h20.97c1,0,2,2,2,3v16.98c0,2-1,3-2,3h-20.97s-1-1-1-3v-16.98c0-1,1-3,1-3Z"/>
  <path id="cr" data-name="path197" class="df" d="m37.95,128.84c-2,0-3-2-3-3v-17.98c0-2,1-3,3-3h37.95c2,0,3,1,3,3v17.98c0,1-1,3-3,3h-37.95Z"/>
  <path id="cs" data-name="path199" class="de" d="m37.95,153.81c-1,0-3-1-3-2v-18.98c0-1,2-2,3-2h44.94c2,0,3.99,1,3.99,2v18.98c0,1-2,2-3.99,2h-44.94Z"/>
  <path id="ct" data-name="path373" class="dg" d="m628.21,203.74c-1,0-3-1-3-2v-18.98c0-1,2-2,3-2h48.94c2,0,3,1,3,2v18.98c0,1-1,2-3,2h-48.94Z"/>
  <path id="cu" data-name="path551" class="de" d="m400.5,178.78c-1,0-2-1-2-3v-16.98c0-1,1-3,2-3h72.91c2,0,3,2,3,3v16.98c0,2-1,3-3,3h-72.91Z"/>
  <path id="cv" data-name="path553" class="df" d="m436.45,130.84h-16.98c-2,0-3,1-3,2v18.98c0,1,1,2,3,2h53.93c2,0,3-1,3-2v-43.94c0-2-1-3-3-3h-30.96c-2,0-3,1-3,3v19.97c0,2,0,3-3,3Z"/>
  <path id="cw" data-name="path559" class="de" d="m440.45,180.77h32.96c2,0,3,1,3,3v17.98c0,2-1,3-3,3h-32.96c-2,0-3-1-3-3v-17.98c0-2,1-3,3-3Z"/>
  <path id="cx" data-name="path561" class="de" d="m37.95,178.78c-1,0-3-1-3-3v-16.98c0-1,2-3,3-3h56.93c1,0,2,2,2,3v16.98c0,2-1,3-2,3h-56.93Z"/>
  <path id="cy" data-name="path563" class="de" d="m37.95,180.77h29.96c1,0,2,1,2,3v17.98c0,2-1,3-2,3h-29.96c-2,0-3-1-3-3v-17.98c0-2,1-3,3-3Z"/>
  <path id="cz" data-name="path565" class="de" d="m77.9,180.77h18.98c2,0,3,1,3,3v17.98c0,1-1,3-3,3h-18.98c-1,0-3-2-3-3v-17.98c0-2,2-3,3-3Z"/>
  <path id="da" data-name="path567" class="de" d="m106.87,180.77h24.97c1,0,2,1,2,3v17.98c0,1-1,3-2,3h-24.97c-1,0-2-2-2-3v-17.98c0-2,1-3,2-3Z"/>
  <path id="db" data-name="path865" class="de" d="m346.57,180.77h23.97c1,0,2,1,2,3v17.98c0,1-1,3-2,3h-23.97c-1,0-2-2-2-3v-17.98c0-2,1-3,2-3Z"/>
  <g>
    <path class="dc" d="m447.35,87.41c.53-.11,1.28-.17,2-.17,1.12,0,1.83.2,2.34.66.41.36.64.91.64,1.54,0,1.07-.67,1.77-1.52,2.06v.04c.62.22,1,.79,1.19,1.63.26,1.13.46,1.91.62,2.22h-1.08c-.13-.23-.31-.92-.54-1.93-.24-1.12-.67-1.54-1.62-1.57h-.98v3.5h-1.04v-7.98Zm1.04,3.68h1.07c1.12,0,1.82-.61,1.82-1.54,0-1.04-.75-1.5-1.86-1.51-.5,0-.86.05-1.03.1v2.95Z"/>
    <path class="dc" d="m454.41,92.68c.02,1.43.94,2.01,1.99,2.01.75,0,1.21-.13,1.61-.3l.18.76c-.37.17-1.01.36-1.93.36-1.79,0-2.85-1.18-2.85-2.93s1.03-3.13,2.72-3.13c1.9,0,2.4,1.67,2.4,2.73,0,.22-.02.38-.04.49h-4.08Zm3.09-.76c.01-.67-.28-1.71-1.46-1.71-1.07,0-1.54.98-1.62,1.71h3.08Z"/>
    <path class="dc" d="m459.83,91.16c0-.6-.01-1.09-.05-1.57h.94l.06.96h.02c.29-.55.96-1.09,1.92-1.09.8,0,2.05.48,2.05,2.47v3.47h-1.06v-3.35c0-.94-.35-1.71-1.34-1.71-.7,0-1.24.49-1.42,1.08-.05.13-.07.31-.07.49v3.49h-1.06v-4.23Z"/>
    <path class="dc" d="m471.51,86.88v7.02c0,.52.01,1.1.05,1.5h-.95l-.05-1.01h-.02c-.32.65-1.03,1.14-1.98,1.14-1.4,0-2.48-1.19-2.48-2.95-.01-1.93,1.19-3.12,2.6-3.12.89,0,1.49.42,1.75.89h.02v-3.47h1.06Zm-1.06,5.07c0-.13-.01-.31-.05-.44-.16-.67-.73-1.22-1.52-1.22-1.09,0-1.74.96-1.74,2.24,0,1.18.58,2.15,1.72,2.15.71,0,1.35-.47,1.55-1.26.04-.14.05-.29.05-.46v-1.01Z"/>
    <path class="dc" d="m473.85,92.68c.02,1.43.93,2.01,1.99,2.01.76,0,1.21-.13,1.61-.3l.18.76c-.37.17-1.01.36-1.93.36-1.79,0-2.85-1.18-2.85-2.93s1.03-3.13,2.72-3.13c1.89,0,2.4,1.67,2.4,2.73,0,.22-.02.38-.04.49h-4.08Zm3.09-.76c.01-.67-.28-1.71-1.46-1.71-1.07,0-1.54.98-1.62,1.71h3.08Z"/>
    <path class="dc" d="m479.27,91.4c0-.68-.01-1.27-.05-1.81h.92l.04,1.14h.05c.26-.78.9-1.27,1.61-1.27.12,0,.2.01.3.04v1c-.11-.02-.22-.04-.36-.04-.74,0-1.27.56-1.42,1.36-.02.14-.05.31-.05.49v3.09h-1.04v-3.99Z"/>
  </g>
  <g>
    <path class="dc" d="m41.52,48.37c-.38.19-1.15.38-2.13.38-2.28,0-3.99-1.44-3.99-4.09s1.72-4.25,4.22-4.25c1.01,0,1.64.22,1.92.36l-.25.85c-.4-.19-.96-.34-1.63-.34-1.9,0-3.15,1.21-3.15,3.33,0,1.98,1.14,3.25,3.11,3.25.64,0,1.28-.13,1.7-.34l.22.83Z"/>
    <path class="dc" d="m42.79,40.11h1.06v8.52h-1.06v-8.52Z"/>
    <path class="dc" d="m46.21,45.92c.02,1.43.94,2.01,1.99,2.01.76,0,1.21-.13,1.61-.3l.18.76c-.37.17-1.01.36-1.93.36-1.79,0-2.85-1.18-2.85-2.93s1.03-3.13,2.72-3.13c1.9,0,2.4,1.67,2.4,2.73,0,.22-.02.38-.04.49h-4.08Zm3.09-.76c.01-.67-.28-1.71-1.46-1.71-1.07,0-1.54.98-1.62,1.71h3.08Z"/>
    <path class="dc" d="m54.85,48.63l-.08-.73h-.04c-.32.46-.95.86-1.77.86-1.18,0-1.77-.83-1.77-1.67,0-1.4,1.25-2.17,3.49-2.16v-.12c0-.48-.13-1.34-1.32-1.34-.54,0-1.1.17-1.51.43l-.24-.7c.48-.31,1.18-.52,1.91-.52,1.77,0,2.21,1.21,2.21,2.37v2.17c0,.5.02,1,.1,1.39h-.96Zm-.16-2.96c-1.15-.02-2.46.18-2.46,1.31,0,.68.46,1.01,1,1.01.76,0,1.24-.48,1.4-.97.04-.11.06-.23.06-.34v-1.01Z"/>
    <path class="dc" d="m57.42,44.64c0-.68-.01-1.27-.05-1.81h.92l.04,1.14h.05c.26-.78.9-1.27,1.61-1.27.12,0,.2.01.3.04v1c-.11-.02-.22-.04-.36-.04-.74,0-1.27.56-1.42,1.36-.02.14-.05.31-.05.49v3.09h-1.04v-3.99Z"/>
    <path class="dc" d="m35.72,59.36c.47.29,1.15.53,1.87.53,1.07,0,1.69-.56,1.69-1.38,0-.76-.43-1.19-1.52-1.61-1.32-.47-2.14-1.15-2.14-2.29,0-1.26,1.04-2.19,2.61-2.19.83,0,1.43.19,1.79.4l-.29.85c-.26-.14-.8-.38-1.54-.38-1.1,0-1.52.66-1.52,1.21,0,.76.49,1.13,1.61,1.56,1.37.53,2.06,1.19,2.06,2.37,0,1.25-.92,2.33-2.83,2.33-.78,0-1.63-.23-2.06-.52l.26-.88Z"/>
    <path class="dc" d="m42.41,57.92c.02,1.43.94,2.01,1.99,2.01.76,0,1.21-.13,1.61-.3l.18.76c-.37.17-1.01.36-1.93.36-1.79,0-2.85-1.18-2.85-2.93s1.03-3.13,2.72-3.13c1.9,0,2.4,1.67,2.4,2.73,0,.22-.02.38-.04.49h-4.08Zm3.09-.76c.01-.67-.28-1.71-1.46-1.71-1.07,0-1.54.98-1.62,1.71h3.08Z"/>
    <path class="dc" d="m47.83,52.11h1.06v8.52h-1.06v-8.52Z"/>
    <path class="dc" d="m51.25,57.92c.02,1.43.94,2.01,1.99,2.01.76,0,1.21-.13,1.61-.3l.18.76c-.37.17-1.01.36-1.93.36-1.79,0-2.85-1.18-2.85-2.93s1.03-3.13,2.72-3.13c1.9,0,2.4,1.67,2.4,2.73,0,.22-.02.38-.04.49h-4.08Zm3.09-.76c.01-.67-.28-1.71-1.46-1.71-1.07,0-1.54.98-1.62,1.71h3.08Z"/>
    <path class="dc" d="m60.81,60.41c-.28.14-.89.34-1.67.34-1.75,0-2.89-1.19-2.89-2.96s1.22-3.08,3.12-3.08c.62,0,1.18.16,1.46.3l-.24.82c-.25-.14-.65-.28-1.22-.28-1.33,0-2.05.98-2.05,2.19,0,1.34.86,2.17,2.02,2.17.6,0,1-.16,1.3-.29l.18.79Z"/>
    <path class="dc" d="m63.48,53.16v1.67h1.51v.8h-1.51v3.13c0,.72.2,1.13.79,1.13.28,0,.48-.04.61-.07l.05.79c-.2.08-.53.14-.94.14-.49,0-.89-.16-1.14-.44-.3-.31-.41-.83-.41-1.51v-3.17h-.9v-.8h.9v-1.39l1.03-.28Z"/>
    <path class="dc" d="m67.35,53.19c.01.36-.25.65-.67.65-.37,0-.64-.29-.64-.65s.28-.66.66-.66.65.29.65.66Zm-1.18,7.44v-5.8h1.06v5.8h-1.06Z"/>
    <path class="dc" d="m74.24,57.68c0,2.15-1.49,3.08-2.89,3.08-1.57,0-2.78-1.15-2.78-2.99,0-1.94,1.27-3.08,2.88-3.08s2.79,1.21,2.79,2.99Zm-4.61.06c0,1.27.73,2.23,1.76,2.23s1.76-.95,1.76-2.25c0-.98-.49-2.23-1.74-2.23s-1.79,1.15-1.79,2.25Z"/>
    <path class="dc" d="m75.57,56.4c0-.6-.01-1.09-.05-1.57h.94l.06.96h.02c.29-.55.96-1.09,1.92-1.09.8,0,2.05.48,2.05,2.47v3.47h-1.06v-3.35c0-.94-.35-1.71-1.34-1.71-.7,0-1.24.49-1.42,1.08-.05.13-.07.31-.07.49v3.49h-1.06v-4.23Z"/>
  </g>
  <g>
    <path class="dc" d="m50.14,117.39c-.06-1.13-.13-2.48-.12-3.49h-.04c-.28.95-.61,1.96-1.02,3.07l-1.43,3.92h-.79l-1.31-3.85c-.38-1.14-.71-2.18-.94-3.14h-.02c-.02,1.01-.08,2.36-.16,3.57l-.22,3.47h-1l.56-8.08h1.33l1.38,3.91c.34,1,.61,1.88.82,2.72h.04c.2-.82.49-1.7.85-2.72l1.44-3.91h1.33l.5,8.08h-1.02l-.2-3.55Z"/>
    <path class="dc" d="m53.59,118.23c.02,1.43.94,2.01,1.99,2.01.76,0,1.21-.13,1.61-.3l.18.76c-.37.17-1.01.36-1.93.36-1.79,0-2.85-1.18-2.85-2.93s1.03-3.13,2.72-3.13c1.9,0,2.4,1.67,2.4,2.73,0,.22-.02.38-.04.49h-4.08Zm3.09-.76c.01-.67-.28-1.71-1.46-1.71-1.07,0-1.54.98-1.62,1.71h3.08Z"/>
    <path class="dc" d="m59.02,116.71c0-.6-.01-1.09-.05-1.57h.94l.06.96h.02c.29-.55.96-1.09,1.92-1.09.8,0,2.05.48,2.05,2.47v3.47h-1.06v-3.35c0-.94-.35-1.71-1.34-1.71-.7,0-1.24.49-1.42,1.08-.05.13-.07.31-.07.49v3.49h-1.06v-4.23Z"/>
    <path class="dc" d="m70.54,119.36c0,.6.01,1.13.05,1.58h-.94l-.06-.95h-.02c-.28.47-.89,1.08-1.92,1.08-.91,0-2-.5-2-2.54v-3.39h1.06v3.21c0,1.1.34,1.85,1.3,1.85.71,0,1.2-.49,1.39-.96.06-.16.1-.35.1-.54v-3.56h1.06v4.22Z"/>
  </g>
  <g>
    <path class="dc" d="m500.44,106c.64-.1,1.39-.17,2.22-.17,1.5,0,2.57.35,3.27,1.01.72.66,1.14,1.6,1.14,2.9s-.41,2.4-1.16,3.14c-.75.76-2,1.16-3.57,1.16-.74,0-1.37-.04-1.9-.1v-7.95Zm1.04,7.15c.26.05.65.06,1.05.06,2.23,0,3.44-1.25,3.44-3.43.01-1.91-1.07-3.12-3.27-3.12-.54,0-.95.05-1.22.11v6.38Z"/>
    <path class="dc" d="m509.03,111.27c.02,1.43.94,2.01,1.99,2.01.75,0,1.21-.13,1.61-.3l.18.76c-.37.17-1.01.36-1.93.36-1.79,0-2.85-1.18-2.85-2.93s1.03-3.13,2.72-3.13c1.9,0,2.4,1.67,2.4,2.73,0,.22-.02.38-.04.49h-4.08Zm3.09-.76c.01-.67-.28-1.71-1.46-1.71-1.07,0-1.54.98-1.62,1.71h3.08Z"/>
    <path class="dc" d="m514.45,105.46h1.06v8.52h-1.06v-8.52Z"/>
    <path class="dc" d="m517.87,111.27c.02,1.43.94,2.01,1.99,2.01.75,0,1.21-.13,1.61-.3l.18.76c-.37.17-1.01.36-1.93.36-1.79,0-2.85-1.18-2.85-2.93s1.03-3.13,2.72-3.13c1.9,0,2.4,1.67,2.4,2.73,0,.22-.02.38-.04.49h-4.08Zm3.09-.76c.01-.67-.28-1.71-1.46-1.71-1.07,0-1.54.98-1.62,1.71h3.08Z"/>
    <path class="dc" d="m524.57,106.51v1.67h1.51v.8h-1.51v3.13c0,.72.2,1.13.79,1.13.28,0,.48-.04.61-.07l.05.79c-.2.08-.53.14-.94.14-.49,0-.89-.16-1.14-.44-.3-.31-.41-.83-.41-1.51v-3.17h-.9v-.8h.9v-1.39l1.03-.28Z"/>
    <path class="dc" d="m527.79,111.27c.02,1.43.94,2.01,1.99,2.01.76,0,1.21-.13,1.61-.3l.18.76c-.37.17-1.01.36-1.93.36-1.79,0-2.85-1.18-2.85-2.93s1.03-3.13,2.72-3.13c1.89,0,2.4,1.67,2.4,2.73,0,.22-.02.38-.04.49h-4.08Zm3.09-.76c.01-.67-.28-1.71-1.46-1.71-1.07,0-1.54.98-1.62,1.71h3.08Z"/>
    <path class="dc" d="m505.02,122.43c-.06-1.13-.13-2.48-.12-3.49h-.04c-.28.95-.61,1.96-1.02,3.07l-1.43,3.92h-.79l-1.31-3.85c-.38-1.14-.71-2.18-.94-3.14h-.02c-.02,1.01-.08,2.36-.16,3.57l-.22,3.47h-1l.56-8.08h1.33l1.38,3.91c.34,1,.61,1.88.82,2.72h.04c.2-.82.49-1.7.85-2.72l1.44-3.91h1.33l.5,8.08h-1.02l-.2-3.55Z"/>
    <path class="dc" d="m511.1,125.98l-.08-.73h-.04c-.32.46-.95.86-1.78.86-1.17,0-1.77-.83-1.77-1.67,0-1.4,1.25-2.17,3.49-2.16v-.12c0-.48-.13-1.34-1.32-1.34-.54,0-1.1.17-1.51.43l-.24-.7c.48-.31,1.18-.52,1.91-.52,1.78,0,2.21,1.21,2.21,2.37v2.17c0,.5.02,1,.1,1.39h-.96Zm-.16-2.96c-1.15-.02-2.46.18-2.46,1.31,0,.68.46,1.01,1,1.01.75,0,1.24-.48,1.4-.97.04-.11.06-.23.06-.34v-1.01Z"/>
    <path class="dc" d="m513.67,121.99c0-.68-.01-1.27-.05-1.81h.92l.04,1.14h.05c.26-.78.9-1.27,1.61-1.27.12,0,.2.01.3.04v1c-.11-.02-.22-.04-.36-.04-.74,0-1.27.56-1.42,1.36-.02.14-.05.31-.05.49v3.09h-1.04v-3.99Z"/>
    <path class="dc" d="m518.69,122.84h.02c.14-.2.35-.46.52-.66l1.7-2h1.27l-2.24,2.39,2.55,3.42h-1.28l-2-2.78-.54.6v2.18h-1.04v-8.52h1.04v5.37Z"/>
    <path class="dc" d="m523.86,123.27c.02,1.43.94,2.01,1.99,2.01.75,0,1.21-.13,1.61-.3l.18.76c-.37.17-1.01.36-1.93.36-1.79,0-2.85-1.18-2.85-2.93s1.03-3.13,2.72-3.13c1.9,0,2.4,1.67,2.4,2.73,0,.22-.02.38-.04.49h-4.08Zm3.09-.76c.01-.67-.28-1.71-1.46-1.71-1.07,0-1.54.98-1.62,1.71h3.08Z"/>
    <path class="dc" d="m529.28,121.99c0-.68-.01-1.27-.05-1.81h.92l.04,1.14h.05c.26-.78.9-1.27,1.61-1.27.12,0,.2.01.3.04v1c-.11-.02-.22-.04-.36-.04-.74,0-1.27.56-1.42,1.36-.02.14-.05.31-.05.49v3.09h-1.04v-3.99Z"/>
  </g>
  <g>
    <path class="dc" d="m505.26,78.79v8.08h-1.04v-8.08h1.04Z"/>
    <path class="dc" d="m507.17,82.64c0-.6-.01-1.09-.05-1.57h.94l.06.96h.02c.29-.55.96-1.09,1.92-1.09.8,0,2.05.48,2.05,2.47v3.47h-1.06v-3.35c0-.94-.35-1.71-1.34-1.71-.7,0-1.24.49-1.42,1.08-.05.13-.07.31-.07.49v3.49h-1.06v-4.23Z"/>
    <path class="dc" d="m513.69,85.79c.31.2.86.42,1.39.42.77,0,1.13-.38,1.13-.86,0-.5-.3-.78-1.08-1.07-1.04-.37-1.54-.95-1.54-1.64,0-.94.76-1.7,2-1.7.59,0,1.1.17,1.43.36l-.26.77c-.23-.14-.65-.34-1.19-.34-.62,0-.97.36-.97.79,0,.48.35.7,1.1.98,1.01.38,1.52.89,1.52,1.75,0,1.02-.79,1.74-2.17,1.74-.63,0-1.22-.16-1.63-.4l.26-.8Z"/>
    <path class="dc" d="m519.17,84.16c.02,1.43.94,2.01,1.99,2.01.76,0,1.21-.13,1.61-.3l.18.76c-.37.17-1.01.36-1.93.36-1.79,0-2.85-1.18-2.85-2.93s1.03-3.13,2.72-3.13c1.89,0,2.4,1.67,2.4,2.73,0,.22-.02.38-.04.49h-4.08Zm3.09-.76c.01-.67-.28-1.71-1.46-1.71-1.07,0-1.54.98-1.62,1.71h3.08Z"/>
    <path class="dc" d="m524.59,82.88c0-.68-.01-1.27-.05-1.81h.92l.04,1.14h.05c.26-.78.9-1.27,1.61-1.27.12,0,.2.01.3.04v1c-.11-.02-.22-.04-.36-.04-.74,0-1.27.56-1.42,1.36-.02.14-.05.31-.05.49v3.09h-1.04v-3.99Z"/>
    <path class="dc" d="m530.08,79.4v1.67h1.51v.8h-1.51v3.13c0,.72.2,1.13.79,1.13.28,0,.48-.04.61-.07l.05.79c-.2.08-.53.14-.94.14-.49,0-.89-.16-1.14-.44-.3-.31-.41-.83-.41-1.51v-3.17h-.9v-.8h.9v-1.39l1.03-.28Z"/>
    <path class="dc" d="m504.59,95.32c-.06-1.13-.13-2.48-.12-3.49h-.04c-.28.95-.61,1.96-1.02,3.07l-1.43,3.92h-.79l-1.31-3.85c-.38-1.14-.71-2.18-.94-3.14h-.02c-.02,1.01-.08,2.36-.16,3.57l-.22,3.47h-1l.56-8.08h1.33l1.38,3.91c.34,1,.61,1.88.82,2.72h.04c.2-.82.49-1.7.85-2.72l1.44-3.91h1.33l.5,8.08h-1.02l-.2-3.55Z"/>
    <path class="dc" d="m510.67,98.87l-.08-.73h-.04c-.32.46-.95.86-1.78.86-1.17,0-1.77-.83-1.77-1.67,0-1.4,1.25-2.17,3.49-2.16v-.12c0-.48-.13-1.34-1.32-1.34-.54,0-1.1.17-1.51.43l-.24-.7c.48-.31,1.18-.52,1.91-.52,1.78,0,2.21,1.21,2.21,2.37v2.17c0,.5.02,1,.1,1.39h-.96Zm-.16-2.96c-1.15-.02-2.46.18-2.46,1.31,0,.68.46,1.01,1,1.01.75,0,1.24-.48,1.4-.97.04-.11.06-.23.06-.34v-1.01Z"/>
    <path class="dc" d="m513.24,94.88c0-.68-.01-1.27-.05-1.81h.92l.04,1.14h.05c.26-.78.9-1.27,1.61-1.27.12,0,.2.01.3.04v1c-.11-.02-.22-.04-.36-.04-.74,0-1.27.56-1.42,1.36-.02.14-.05.31-.05.49v3.09h-1.04v-3.99Z"/>
    <path class="dc" d="m518.26,95.73h.02c.14-.2.35-.46.52-.66l1.7-2h1.27l-2.24,2.39,2.55,3.42h-1.28l-2-2.78-.54.6v2.18h-1.04v-8.52h1.04v5.37Z"/>
    <path class="dc" d="m523.43,96.16c.02,1.43.94,2.01,1.99,2.01.75,0,1.21-.13,1.61-.3l.18.76c-.37.17-1.01.36-1.93.36-1.79,0-2.85-1.18-2.85-2.93s1.03-3.13,2.72-3.13c1.9,0,2.4,1.67,2.4,2.73,0,.22-.02.38-.04.49h-4.08Zm3.09-.76c.01-.67-.28-1.71-1.46-1.71-1.07,0-1.54.98-1.62,1.71h3.08Z"/>
    <path class="dc" d="m528.85,94.88c0-.68-.01-1.27-.05-1.81h.92l.04,1.14h.05c.26-.78.9-1.27,1.61-1.27.12,0,.2.01.3.04v1c-.11-.02-.22-.04-.36-.04-.74,0-1.27.56-1.42,1.36-.02.14-.05.31-.05.49v3.09h-1.04v-3.99Z"/>
  </g>
  <g>
    <path class="dc" d="m540.09,106c.53-.11,1.28-.17,2-.17,1.12,0,1.83.2,2.34.66.41.36.64.91.64,1.54,0,1.07-.67,1.77-1.52,2.06v.04c.62.22,1,.79,1.19,1.63.26,1.13.46,1.91.62,2.22h-1.08c-.13-.23-.31-.92-.54-1.93-.24-1.12-.67-1.54-1.62-1.57h-.98v3.5h-1.04v-7.98Zm1.04,3.68h1.07c1.12,0,1.82-.61,1.82-1.54,0-1.04-.76-1.5-1.86-1.51-.5,0-.86.05-1.03.1v2.95Z"/>
    <path class="dc" d="m547.14,111.27c.02,1.43.94,2.01,1.99,2.01.76,0,1.21-.13,1.61-.3l.18.76c-.37.17-1.01.36-1.93.36-1.79,0-2.85-1.18-2.85-2.93s1.03-3.13,2.72-3.13c1.89,0,2.4,1.67,2.4,2.73,0,.22-.02.38-.04.49h-4.08Zm3.09-.76c.01-.67-.28-1.71-1.46-1.71-1.07,0-1.54.98-1.62,1.71h3.08Z"/>
    <path class="dc" d="m552.42,112.9c.31.2.86.42,1.39.42.77,0,1.13-.38,1.13-.86,0-.5-.3-.78-1.08-1.07-1.04-.37-1.54-.95-1.54-1.64,0-.94.76-1.7,2-1.7.59,0,1.1.17,1.43.36l-.26.77c-.23-.14-.65-.34-1.19-.34-.62,0-.97.36-.97.79,0,.48.35.7,1.1.98,1.01.38,1.52.89,1.52,1.75,0,1.02-.79,1.74-2.17,1.74-.63,0-1.22-.16-1.63-.4l.26-.8Z"/>
    <path class="dc" d="m558.59,106.51v1.67h1.51v.8h-1.51v3.13c0,.72.2,1.13.79,1.13.28,0,.48-.04.61-.07l.05.79c-.2.08-.53.14-.94.14-.49,0-.89-.16-1.14-.44-.3-.31-.41-.83-.41-1.51v-3.17h-.9v-.8h.9v-1.39l1.03-.28Z"/>
    <path class="dc" d="m564.51,113.98l-.08-.73h-.04c-.32.46-.95.86-1.78.86-1.17,0-1.77-.83-1.77-1.67,0-1.4,1.25-2.17,3.49-2.16v-.12c0-.48-.13-1.34-1.32-1.34-.54,0-1.1.17-1.51.43l-.24-.7c.48-.31,1.18-.52,1.91-.52,1.78,0,2.21,1.21,2.21,2.37v2.17c0,.5.02,1,.1,1.39h-.96Zm-.16-2.96c-1.15-.02-2.46.18-2.46,1.31,0,.68.46,1.01,1,1.01.75,0,1.24-.48,1.4-.97.04-.11.06-.23.06-.34v-1.01Z"/>
    <path class="dc" d="m567.07,109.99c0-.68-.01-1.27-.05-1.81h.92l.04,1.14h.05c.26-.78.9-1.27,1.61-1.27.12,0,.2.01.3.04v1c-.11-.02-.22-.04-.36-.04-.74,0-1.27.56-1.42,1.36-.02.14-.05.31-.05.49v3.09h-1.04v-3.99Z"/>
    <path class="dc" d="m572.56,106.51v1.67h1.51v.8h-1.51v3.13c0,.72.2,1.13.79,1.13.28,0,.48-.04.61-.07l.05.79c-.2.08-.53.14-.94.14-.49,0-.89-.16-1.14-.44-.3-.31-.41-.83-.41-1.51v-3.17h-.9v-.8h.9v-1.39l1.03-.28Z"/>
    <path class="dc" d="m541.62,118.78h-2.46v-.89h5.98v.89h-2.47v7.2h-1.05v-7.2Z"/>
    <path class="dc" d="m545.48,121.99c0-.68-.01-1.27-.05-1.81h.92l.04,1.14h.05c.26-.78.9-1.27,1.61-1.27.12,0,.2.01.3.04v1c-.11-.02-.22-.04-.36-.04-.74,0-1.27.56-1.42,1.36-.02.14-.05.31-.05.49v3.09h-1.04v-3.99Z"/>
    <path class="dc" d="m552.55,125.98l-.08-.73h-.04c-.32.46-.95.86-1.77.86-1.18,0-1.78-.83-1.78-1.67,0-1.4,1.25-2.17,3.49-2.16v-.12c0-.48-.13-1.34-1.32-1.34-.54,0-1.1.17-1.51.43l-.24-.7c.48-.31,1.18-.52,1.91-.52,1.77,0,2.21,1.21,2.21,2.37v2.17c0,.5.02,1,.1,1.39h-.96Zm-.16-2.96c-1.15-.02-2.46.18-2.46,1.31,0,.68.46,1.01,1,1.01.76,0,1.24-.48,1.4-.97.04-.11.06-.23.06-.34v-1.01Z"/>
    <path class="dc" d="m559.26,125.76c-.28.14-.89.34-1.67.34-1.75,0-2.89-1.19-2.89-2.96s1.22-3.08,3.12-3.08c.62,0,1.17.16,1.46.3l-.24.82c-.25-.14-.65-.28-1.22-.28-1.33,0-2.05.98-2.05,2.19,0,1.34.86,2.17,2.02,2.17.6,0,1-.16,1.29-.29l.18.79Z"/>
    <path class="dc" d="m561.54,122.84h.02c.14-.2.35-.46.52-.66l1.7-2h1.27l-2.24,2.39,2.55,3.42h-1.28l-2-2.78-.54.6v2.18h-1.04v-8.52h1.04v5.37Z"/>
  </g>
  <g>
    <path class="dc" d="m443.06,122.14h-2.46v-.89h5.99v.89h-2.47v7.2h-1.06v-7.2Z"/>
    <path class="dc" d="m451.85,126.39c0,2.15-1.49,3.08-2.89,3.08-1.57,0-2.78-1.15-2.78-2.99,0-1.94,1.27-3.08,2.88-3.08s2.79,1.21,2.79,2.99Zm-4.61.06c0,1.27.73,2.23,1.76,2.23s1.76-.95,1.76-2.25c0-.98-.49-2.23-1.74-2.23s-1.79,1.15-1.79,2.25Z"/>
    <path class="dc" d="m458.19,123.53c-.02.42-.05.89-.05,1.6v3.37c0,1.33-.26,2.15-.83,2.65-.56.53-1.38.7-2.11.7s-1.46-.17-1.93-.48l.26-.8c.38.24.98.46,1.7.46,1.08,0,1.87-.56,1.87-2.03v-.65h-.02c-.32.54-.95.97-1.85.97-1.44,0-2.47-1.22-2.47-2.83,0-1.97,1.28-3.08,2.62-3.08,1.01,0,1.56.53,1.81,1.01h.02l.05-.88h.92Zm-1.09,2.29c0-.18-.01-.34-.06-.48-.19-.61-.71-1.12-1.48-1.12-1.01,0-1.73.85-1.73,2.19,0,1.14.58,2.09,1.71,2.09.65,0,1.24-.41,1.46-1.08.06-.18.08-.38.08-.56v-1.04Z"/>
    <path class="dc" d="m464.9,123.53c-.02.42-.05.89-.05,1.6v3.37c0,1.33-.26,2.15-.83,2.65-.56.53-1.38.7-2.11.7s-1.46-.17-1.93-.48l.26-.8c.38.24.98.46,1.7.46,1.08,0,1.87-.56,1.87-2.03v-.65h-.02c-.32.54-.95.97-1.85.97-1.44,0-2.47-1.22-2.47-2.83,0-1.97,1.28-3.08,2.61-3.08,1.01,0,1.56.53,1.81,1.01h.02l.05-.88h.92Zm-1.09,2.29c0-.18-.01-.34-.06-.48-.19-.61-.71-1.12-1.48-1.12-1.01,0-1.73.85-1.73,2.19,0,1.14.58,2.09,1.72,2.09.65,0,1.24-.41,1.46-1.08.06-.18.08-.38.08-.56v-1.04Z"/>
    <path class="dc" d="m466.6,120.82h1.06v8.52h-1.06v-8.52Z"/>
    <path class="dc" d="m470.02,126.63c.02,1.43.94,2.01,1.99,2.01.75,0,1.21-.13,1.61-.3l.18.76c-.37.17-1.01.36-1.93.36-1.79,0-2.86-1.18-2.86-2.93s1.03-3.13,2.72-3.13c1.9,0,2.4,1.67,2.4,2.73,0,.22-.02.38-.04.49h-4.08Zm3.09-.76c.01-.67-.28-1.71-1.46-1.71-1.07,0-1.54.98-1.62,1.71h3.08Z"/>
    <path class="dc" d="m424.33,135.76c.53-.11,1.28-.17,2-.17,1.12,0,1.83.2,2.34.66.41.36.64.91.64,1.54,0,1.07-.67,1.77-1.52,2.06v.04c.62.22.99.79,1.19,1.63.26,1.13.46,1.91.62,2.22h-1.08c-.13-.23-.31-.92-.54-1.93-.24-1.12-.67-1.54-1.62-1.57h-.98v3.5h-1.04v-7.98Zm1.04,3.68h1.07c1.12,0,1.82-.61,1.82-1.54,0-1.04-.75-1.5-1.86-1.51-.5,0-.86.05-1.03.1v2.95Z"/>
    <path class="dc" d="m431.38,141.03c.02,1.43.94,2.01,1.99,2.01.76,0,1.21-.13,1.61-.3l.18.76c-.37.17-1.01.36-1.93.36-1.79,0-2.85-1.18-2.85-2.93s1.03-3.13,2.72-3.13c1.89,0,2.4,1.67,2.4,2.73,0,.22-.02.38-.04.49h-4.08Zm3.09-.76c.01-.67-.28-1.71-1.46-1.71-1.07,0-1.54.98-1.62,1.71h3.08Z"/>
    <path class="dc" d="m440.94,143.52c-.28.14-.89.34-1.67.34-1.75,0-2.89-1.19-2.89-2.96s1.22-3.08,3.12-3.08c.62,0,1.17.16,1.46.3l-.24.82c-.25-.14-.65-.28-1.22-.28-1.33,0-2.05.98-2.05,2.19,0,1.34.86,2.17,2.02,2.17.6,0,1-.16,1.29-.29l.18.79Z"/>
    <path class="dc" d="m447.36,140.79c0,2.15-1.49,3.08-2.89,3.08-1.57,0-2.78-1.15-2.78-2.99,0-1.94,1.27-3.08,2.88-3.08s2.79,1.21,2.79,2.99Zm-4.61.06c0,1.27.73,2.23,1.76,2.23s1.76-.95,1.76-2.25c0-.98-.49-2.23-1.74-2.23s-1.79,1.15-1.79,2.25Z"/>
    <path class="dc" d="m448.7,139.74c0-.68-.01-1.27-.05-1.81h.92l.04,1.14h.05c.26-.78.9-1.27,1.61-1.27.12,0,.2.01.3.04v1c-.11-.02-.22-.04-.36-.04-.74,0-1.27.56-1.42,1.36-.02.14-.05.31-.05.49v3.09h-1.04v-3.99Z"/>
    <path class="dc" d="m457.52,135.22v7.02c0,.52.01,1.1.05,1.5h-.95l-.05-1.01h-.02c-.32.65-1.03,1.14-1.98,1.14-1.4,0-2.48-1.19-2.48-2.95-.01-1.93,1.19-3.12,2.6-3.12.89,0,1.49.42,1.75.89h.02v-3.47h1.05Zm-1.05,5.07c0-.13-.01-.31-.05-.44-.16-.67-.73-1.22-1.52-1.22-1.09,0-1.74.96-1.74,2.24,0,1.18.58,2.15,1.71,2.15.71,0,1.36-.47,1.55-1.26.04-.14.05-.29.05-.46v-1.01Z"/>
    <path class="dc" d="m460.44,136.3c.01.36-.25.65-.67.65-.37,0-.64-.29-.64-.65s.28-.66.66-.66.65.29.65.66Zm-1.17,7.44v-5.8h1.06v5.8h-1.06Z"/>
    <path class="dc" d="m462.08,139.5c0-.6-.01-1.09-.05-1.57h.94l.06.96h.02c.29-.55.96-1.09,1.92-1.09.8,0,2.05.48,2.05,2.47v3.47h-1.06v-3.35c0-.94-.35-1.71-1.34-1.71-.7,0-1.24.49-1.42,1.08-.05.13-.07.31-.07.49v3.49h-1.06v-4.23Z"/>
    <path class="dc" d="m473.74,137.93c-.03.42-.05.89-.05,1.6v3.37c0,1.33-.26,2.15-.83,2.65-.56.53-1.38.7-2.11.7s-1.46-.17-1.93-.48l.26-.8c.38.24.98.46,1.7.46,1.08,0,1.87-.56,1.87-2.03v-.65h-.02c-.32.54-.95.97-1.85.97-1.44,0-2.47-1.22-2.47-2.83,0-1.97,1.28-3.08,2.62-3.08,1.01,0,1.56.53,1.81,1.01h.02l.05-.88h.92Zm-1.09,2.29c0-.18-.01-.34-.06-.48-.19-.61-.71-1.12-1.47-1.12-1.01,0-1.73.85-1.73,2.19,0,1.14.58,2.09,1.72,2.09.65,0,1.23-.41,1.46-1.08.06-.18.08-.38.08-.56v-1.04Z"/>
  </g>
  <g>
    <path class="dc" d="m210.13,188.58c.5-.08,1.16-.16,2-.16,1.03,0,1.79.24,2.27.67.44.38.71.97.71,1.69s-.22,1.31-.62,1.73c-.55.59-1.45.89-2.47.89-.31,0-.6-.01-.84-.07v3.24h-1.04v-7.99Zm1.04,3.9c.23.06.52.08.86.08,1.26,0,2.03-.61,2.03-1.73s-.76-1.58-1.91-1.58c-.46,0-.8.04-.98.08v3.14Z"/>
    <path class="dc" d="m216.42,188.06h1.06v8.51h-1.06v-8.51Z"/>
    <path class="dc" d="m222.47,196.57l-.08-.73h-.04c-.32.46-.95.86-1.77.86-1.18,0-1.77-.83-1.77-1.67,0-1.4,1.25-2.17,3.49-2.16v-.12c0-.48-.13-1.34-1.32-1.34-.54,0-1.1.17-1.51.43l-.24-.7c.48-.31,1.18-.52,1.91-.52,1.77,0,2.21,1.21,2.21,2.38v2.17c0,.5.02,1,.1,1.39h-.96Zm-.16-2.96c-1.15-.02-2.46.18-2.46,1.31,0,.68.46,1.01,1,1.01.76,0,1.24-.48,1.4-.97.04-.11.06-.23.06-.34v-1.01Z"/>
    <path class="dc" d="m225.33,190.77l1.27,3.43c.13.38.28.84.37,1.19h.02c.11-.35.23-.79.37-1.21l1.15-3.41h1.12l-1.58,4.14c-.76,1.99-1.27,3.01-1.99,3.63-.52.46-1.03.64-1.29.68l-.26-.89c.26-.08.61-.25.92-.52.29-.23.65-.63.89-1.17.05-.11.08-.19.08-.25s-.02-.14-.07-.28l-2.15-5.35h1.15Z"/>
    <path class="dc" d="m232.25,197.05l3.35-8.69h.82l-3.36,8.69h-.8Z"/>
    <path class="dc" d="m239.83,188.58c.5-.08,1.16-.16,2-.16,1.03,0,1.79.24,2.27.67.44.38.71.97.71,1.69s-.22,1.31-.62,1.73c-.55.59-1.45.89-2.47.89-.31,0-.6-.01-.84-.07v3.24h-1.04v-7.99Zm1.04,3.9c.23.06.52.08.86.08,1.26,0,2.03-.61,2.03-1.73s-.76-1.58-1.91-1.58c-.46,0-.8.04-.98.08v3.14Z"/>
    <path class="dc" d="m249.08,196.57l-.08-.73h-.04c-.32.46-.95.86-1.77.86-1.18,0-1.77-.83-1.77-1.67,0-1.4,1.25-2.17,3.49-2.16v-.12c0-.48-.13-1.34-1.32-1.34-.54,0-1.1.17-1.51.43l-.24-.7c.48-.31,1.18-.52,1.91-.52,1.77,0,2.21,1.21,2.21,2.38v2.17c0,.5.02,1,.1,1.39h-.96Zm-.16-2.96c-1.15-.02-2.46.18-2.46,1.31,0,.68.46,1.01,1,1.01.76,0,1.24-.48,1.4-.97.04-.11.06-.23.06-.34v-1.01Z"/>
    <path class="dc" d="m256.51,194.99c0,.6.01,1.13.05,1.58h-.94l-.06-.95h-.02c-.28.47-.89,1.08-1.92,1.08-.91,0-2-.5-2-2.54v-3.39h1.06v3.21c0,1.1.34,1.85,1.3,1.85.71,0,1.2-.49,1.39-.96.06-.16.1-.35.1-.54v-3.56h1.06v4.22Z"/>
    <path class="dc" d="m258.12,195.49c.31.2.86.42,1.39.42.77,0,1.13-.38,1.13-.86,0-.5-.3-.78-1.08-1.07-1.04-.37-1.54-.95-1.54-1.64,0-.94.76-1.7,2-1.7.59,0,1.1.17,1.43.36l-.26.77c-.23-.14-.65-.33-1.19-.33-.62,0-.97.36-.97.79,0,.48.35.7,1.1.98,1.01.38,1.52.89,1.52,1.75,0,1.02-.79,1.74-2.17,1.74-.64,0-1.22-.16-1.63-.4l.26-.8Z"/>
    <path class="dc" d="m263.61,193.86c.02,1.43.94,2.01,1.99,2.01.76,0,1.21-.13,1.61-.3l.18.76c-.37.17-1.01.36-1.93.36-1.79,0-2.85-1.18-2.85-2.93s1.03-3.13,2.72-3.13c1.9,0,2.4,1.67,2.4,2.73,0,.22-.02.38-.04.49h-4.08Zm3.09-.76c.01-.67-.28-1.71-1.46-1.71-1.07,0-1.54.98-1.62,1.71h3.08Z"/>
  </g>
  <g>
    <path class="dc" d="m189.74,87.41c.64-.1,1.39-.17,2.22-.17,1.5,0,2.57.35,3.27,1.01.72.66,1.14,1.6,1.14,2.9s-.41,2.4-1.16,3.14c-.76.76-2,1.16-3.57,1.16-.74,0-1.37-.04-1.9-.1v-7.95Zm1.04,7.15c.26.05.65.06,1.06.06,2.23,0,3.44-1.25,3.44-3.43.01-1.91-1.07-3.12-3.27-3.12-.54,0-.95.05-1.22.11v6.38Z"/>
    <path class="dc" d="m198.33,92.68c.02,1.43.94,2.01,1.99,2.01.76,0,1.21-.13,1.61-.3l.18.76c-.37.17-1.01.36-1.93.36-1.79,0-2.85-1.18-2.85-2.93s1.03-3.13,2.72-3.13c1.9,0,2.4,1.67,2.4,2.73,0,.22-.02.38-.04.49h-4.08Zm3.09-.76c.01-.67-.28-1.71-1.46-1.71-1.07,0-1.54.98-1.62,1.71h3.08Z"/>
    <path class="dc" d="m203.76,91.48c0-.74-.02-1.34-.05-1.9h.95l.05,1h.02c.43-.71,1.12-1.13,2.06-1.13,1.4,0,2.46,1.19,2.46,2.95,0,2.09-1.27,3.12-2.64,3.12-.77,0-1.44-.34-1.79-.91h-.02v3.15h-1.04v-6.28Zm1.04,1.55c0,.16.02.3.05.43.19.73.83,1.24,1.58,1.24,1.12,0,1.76-.91,1.76-2.24,0-1.16-.61-2.16-1.73-2.16-.72,0-1.39.52-1.6,1.31-.04.13-.07.29-.07.43v1Z"/>
    <path class="dc" d="m211.86,87.92v1.67h1.51v.8h-1.51v3.13c0,.72.2,1.13.79,1.13.28,0,.48-.04.61-.07l.05.79c-.2.08-.53.14-.94.14-.49,0-.89-.16-1.14-.44-.3-.31-.41-.83-.41-1.51v-3.17h-.9v-.8h.9v-1.39l1.03-.28Z"/>
    <path class="dc" d="m214.56,86.88h1.06v3.62h.02c.17-.3.43-.56.76-.74.31-.18.68-.3,1.08-.3.78,0,2.03.48,2.03,2.48v3.45h-1.06v-3.33c0-.94-.35-1.73-1.34-1.73-.68,0-1.22.48-1.42,1.06-.06.14-.07.3-.07.5v3.5h-1.06v-8.52Z"/>
    <path class="dc" d="m229.45,95.13c-.38.19-1.15.38-2.13.38-2.28,0-3.99-1.44-3.99-4.09s1.72-4.25,4.22-4.25c1.01,0,1.64.22,1.92.36l-.25.85c-.4-.19-.96-.34-1.63-.34-1.9,0-3.15,1.21-3.15,3.33,0,1.98,1.14,3.25,3.11,3.25.64,0,1.28-.13,1.7-.34l.22.83Z"/>
    <path class="dc" d="m235.84,92.44c0,2.15-1.49,3.08-2.89,3.08-1.57,0-2.78-1.15-2.78-2.99,0-1.94,1.27-3.08,2.88-3.08s2.79,1.21,2.79,2.99Zm-4.61.06c0,1.27.73,2.23,1.76,2.23s1.76-.95,1.76-2.25c0-.98-.49-2.23-1.74-2.23s-1.79,1.15-1.79,2.25Z"/>
    <path class="dc" d="m237.18,91.16c0-.6-.01-1.09-.05-1.57h.94l.06.96h.02c.29-.55.96-1.09,1.92-1.09.8,0,2.05.48,2.05,2.47v3.47h-1.06v-3.35c0-.94-.35-1.71-1.34-1.71-.7,0-1.24.49-1.42,1.08-.05.13-.07.31-.07.49v3.49h-1.06v-4.23Z"/>
    <path class="dc" d="m245.06,87.92v1.67h1.51v.8h-1.51v3.13c0,.72.2,1.13.79,1.13.28,0,.48-.04.61-.07l.05.79c-.2.08-.53.14-.94.14-.49,0-.89-.16-1.14-.44-.3-.31-.41-.83-.41-1.51v-3.17h-.9v-.8h.9v-1.39l1.03-.28Z"/>
    <path class="dc" d="m247.76,91.4c0-.68-.01-1.27-.05-1.81h.92l.04,1.14h.05c.26-.78.9-1.27,1.61-1.27.12,0,.2.01.3.04v1c-.11-.02-.22-.04-.36-.04-.74,0-1.27.56-1.42,1.36-.02.14-.05.31-.05.49v3.09h-1.04v-3.99Z"/>
    <path class="dc" d="m256.82,92.44c0,2.15-1.49,3.08-2.89,3.08-1.57,0-2.78-1.15-2.78-2.99,0-1.94,1.27-3.08,2.88-3.08s2.79,1.21,2.79,2.99Zm-4.61.06c0,1.27.73,2.23,1.76,2.23s1.76-.95,1.76-2.25c0-.98-.49-2.23-1.74-2.23s-1.79,1.15-1.79,2.25Z"/>
    <path class="dc" d="m258.15,86.88h1.06v8.52h-1.06v-8.52Z"/>
    <path class="dc" d="m260.84,94.31c.31.2.86.42,1.39.42.77,0,1.13-.38,1.13-.86,0-.5-.3-.78-1.08-1.07-1.04-.37-1.54-.95-1.54-1.64,0-.94.76-1.7,2-1.7.59,0,1.1.17,1.43.36l-.26.77c-.23-.14-.65-.34-1.19-.34-.62,0-.97.36-.97.79,0,.48.35.7,1.1.98,1.01.38,1.52.89,1.52,1.75,0,1.02-.79,1.74-2.17,1.74-.64,0-1.22-.16-1.63-.4l.26-.8Z"/>
  </g>
  <g>
    <path class="dc" d="m498.9,157.1c.64-.1,1.39-.17,2.22-.17,1.5,0,2.57.35,3.27,1.01.72.66,1.14,1.59,1.14,2.9s-.41,2.4-1.16,3.14c-.75.75-2,1.16-3.57,1.16-.74,0-1.37-.04-1.9-.1v-7.95Zm1.04,7.15c.26.05.65.06,1.05.06,2.23,0,3.44-1.25,3.44-3.43.01-1.91-1.07-3.12-3.27-3.12-.54,0-.95.05-1.22.11v6.38Z"/>
    <path class="dc" d="m507.49,162.36c.02,1.43.93,2.01,1.99,2.01.76,0,1.21-.13,1.61-.3l.18.76c-.37.17-1.01.36-1.93.36-1.79,0-2.85-1.18-2.85-2.93s1.03-3.13,2.72-3.13c1.89,0,2.4,1.67,2.4,2.73,0,.22-.02.38-.04.49h-4.08Zm3.09-.76c.01-.67-.28-1.71-1.46-1.71-1.07,0-1.54.98-1.62,1.71h3.08Z"/>
    <path class="dc" d="m512.92,161.16c0-.74-.02-1.34-.05-1.9h.95l.05,1h.02c.43-.71,1.12-1.13,2.06-1.13,1.4,0,2.46,1.19,2.46,2.95,0,2.09-1.27,3.12-2.64,3.12-.77,0-1.44-.34-1.79-.91h-.02v3.15h-1.04v-6.28Zm1.04,1.55c0,.16.02.3.05.43.19.73.83,1.24,1.58,1.24,1.12,0,1.76-.91,1.76-2.24,0-1.16-.61-2.16-1.73-2.16-.72,0-1.39.52-1.6,1.31-.04.13-.07.29-.07.43v1Z"/>
    <path class="dc" d="m521.02,157.6v1.67h1.51v.8h-1.51v3.13c0,.72.2,1.13.79,1.13.28,0,.48-.04.61-.07l.05.79c-.2.08-.53.14-.94.14-.49,0-.89-.16-1.14-.44-.3-.31-.41-.83-.41-1.51v-3.17h-.9v-.8h.9v-1.39l1.03-.28Z"/>
    <path class="dc" d="m523.72,156.56h1.06v3.62h.02c.17-.3.43-.56.75-.74.31-.18.68-.3,1.08-.3.78,0,2.03.48,2.03,2.48v3.45h-1.06v-3.33c0-.94-.35-1.73-1.34-1.73-.68,0-1.22.48-1.42,1.05-.06.14-.07.3-.07.5v3.5h-1.06v-8.51Z"/>
  </g>
  <g>
    <path class="dc" d="m549.01,167.14c0,2.65-.98,4.11-2.71,4.11-1.52,0-2.55-1.43-2.58-4.01,0-2.61,1.13-4.05,2.71-4.05s2.58,1.46,2.58,3.95Zm-4.23.12c0,2.03.62,3.18,1.58,3.18,1.08,0,1.6-1.26,1.6-3.25s-.49-3.18-1.58-3.18c-.92,0-1.6,1.13-1.6,3.25Z"/>
    <path class="dc" d="m550.07,170.5c0-.44.3-.76.72-.76s.71.31.71.76-.28.76-.72.76c-.42,0-.71-.32-.71-.76Z"/>
    <path class="dc" d="m557.12,164.21h-2.97l-.3,2c.18-.02.35-.05.64-.05.6,0,1.2.13,1.68.42.61.35,1.12,1.02,1.12,2,0,1.52-1.21,2.66-2.9,2.66-.85,0-1.57-.24-1.94-.48l.26-.8c.32.19.96.43,1.67.43,1,0,1.85-.65,1.85-1.69-.01-1.01-.68-1.73-2.24-1.73-.44,0-.79.05-1.08.08l.5-3.74h3.73v.89Z"/>
  </g>
  <path class="dc" d="m523.9,192.73c0,2.65-.98,4.11-2.71,4.11-1.52,0-2.55-1.43-2.58-4.01,0-2.61,1.13-4.05,2.71-4.05s2.58,1.46,2.58,3.95Zm-4.23.12c0,2.03.62,3.18,1.58,3.18,1.08,0,1.6-1.26,1.6-3.25s-.49-3.18-1.58-3.18c-.92,0-1.6,1.13-1.6,3.25Z"/>
  <path class="dc" d="m580.87,189.64h-.02l-1.36.73-.2-.8,1.7-.91h.9v7.8h-1.02v-6.81Z"/>
  <g>
    <path class="dc" d="m642.85,138.48h-2.46v-.89h5.99v.89h-2.47v7.2h-1.06v-7.2Z"/>
    <path class="dc" d="m646.7,141.68c0-.68-.01-1.27-.05-1.81h.92l.04,1.14h.05c.26-.78.9-1.27,1.61-1.27.12,0,.2.01.3.04v1c-.11-.02-.21-.04-.36-.04-.74,0-1.27.56-1.42,1.36-.02.14-.05.31-.05.49v3.09h-1.04v-3.99Z"/>
    <path class="dc" d="m653.78,145.67l-.08-.73h-.04c-.32.46-.95.86-1.77.86-1.18,0-1.78-.83-1.78-1.67,0-1.4,1.25-2.17,3.49-2.16v-.12c0-.48-.13-1.34-1.32-1.34-.54,0-1.1.17-1.51.43l-.24-.7c.48-.31,1.18-.52,1.91-.52,1.78,0,2.21,1.21,2.21,2.37v2.17c0,.5.02,1,.1,1.39h-.96Zm-.16-2.96c-1.15-.02-2.46.18-2.46,1.31,0,.68.46,1.01,1,1.01.76,0,1.24-.48,1.4-.97.04-.11.06-.23.06-.34v-1.01Z"/>
    <path class="dc" d="m656.35,141.44c0-.6-.01-1.09-.05-1.57h.94l.06.96h.02c.29-.55.96-1.09,1.92-1.09.8,0,2.05.48,2.05,2.47v3.47h-1.06v-3.35c0-.94-.35-1.71-1.34-1.71-.7,0-1.23.49-1.41,1.08-.05.13-.07.31-.07.49v3.49h-1.06v-4.23Z"/>
    <path class="dc" d="m662.87,144.59c.31.2.86.42,1.39.42.77,0,1.13-.38,1.13-.86,0-.5-.3-.78-1.08-1.07-1.04-.37-1.54-.95-1.54-1.64,0-.94.75-1.7,2-1.7.59,0,1.1.17,1.43.36l-.26.77c-.23-.14-.65-.34-1.19-.34-.62,0-.97.36-.97.79,0,.48.35.7,1.1.98,1.01.38,1.52.89,1.52,1.75,0,1.02-.79,1.74-2.17,1.74-.64,0-1.22-.16-1.63-.4l.26-.8Z"/>
    <path class="dc" d="m668.94,138.24c.01.36-.25.65-.67.65-.37,0-.64-.29-.64-.65s.28-.66.66-.66.65.29.65.66Zm-1.17,7.44v-5.8h1.06v5.8h-1.06Z"/>
    <path class="dc" d="m671.84,138.2v1.67h1.51v.8h-1.51v3.13c0,.72.2,1.13.79,1.13.28,0,.48-.04.61-.07l.05.79c-.2.08-.53.14-.94.14-.49,0-.89-.16-1.14-.44-.3-.31-.41-.83-.41-1.51v-3.17h-.9v-.8h.9v-1.39l1.03-.28Z"/>
    <path class="dc" d="m675.72,138.24c.01.36-.25.65-.67.65-.37,0-.64-.29-.64-.65s.28-.66.66-.66.65.29.65.66Zm-1.17,7.44v-5.8h1.05v5.8h-1.05Z"/>
    <path class="dc" d="m682.61,142.72c0,2.15-1.49,3.08-2.89,3.08-1.57,0-2.78-1.15-2.78-2.99,0-1.94,1.27-3.08,2.88-3.08s2.79,1.21,2.79,2.99Zm-4.61.06c0,1.27.73,2.23,1.76,2.23s1.76-.95,1.76-2.25c0-.98-.49-2.23-1.74-2.23s-1.79,1.15-1.79,2.25Z"/>
    <path class="dc" d="m683.94,141.44c0-.6-.01-1.09-.05-1.57h.94l.06.96h.02c.29-.55.96-1.09,1.92-1.09.8,0,2.05.48,2.05,2.47v3.47h-1.06v-3.35c0-.94-.35-1.71-1.34-1.71-.7,0-1.23.49-1.41,1.08-.05.13-.07.31-.07.49v3.49h-1.06v-4.23Z"/>
    <path class="dc" d="m690.46,144.59c.31.2.86.42,1.39.42.77,0,1.13-.38,1.13-.86,0-.5-.3-.78-1.08-1.07-1.04-.37-1.54-.95-1.54-1.64,0-.94.75-1.7,2-1.7.59,0,1.1.17,1.43.36l-.26.77c-.23-.14-.65-.34-1.19-.34-.62,0-.97.36-.97.79,0,.48.35.7,1.1.98,1.01.38,1.52.89,1.52,1.75,0,1.02-.79,1.74-2.17,1.74-.64,0-1.22-.16-1.63-.4l.26-.8Z"/>
  </g>
  <g>
    <path class="dc" d="m100.73,113.11v4.79c0,1.81.8,2.58,1.88,2.58,1.2,0,1.97-.79,1.97-2.58v-4.79h1.06v4.71c0,2.48-1.31,3.5-3.06,3.5-1.65,0-2.9-.95-2.9-3.45v-4.76h1.06Z"/>
    <path class="dc" d="m107.42,117.29c0-.74-.02-1.34-.05-1.9h.95l.05,1h.02c.43-.71,1.12-1.13,2.06-1.13,1.4,0,2.46,1.19,2.46,2.95,0,2.09-1.27,3.12-2.64,3.12-.77,0-1.44-.34-1.79-.91h-.02v3.15h-1.04v-6.28Zm1.04,1.55c0,.16.02.3.05.43.19.73.83,1.24,1.58,1.24,1.12,0,1.76-.91,1.76-2.24,0-1.16-.61-2.16-1.73-2.16-.72,0-1.39.52-1.6,1.31-.04.13-.07.29-.07.43v1Z"/>
    <path class="dc" d="m114.58,115.39l.77,2.95c.17.65.32,1.25.43,1.85h.04c.13-.59.32-1.21.52-1.83l.95-2.96h.89l.9,2.9c.22.7.38,1.31.52,1.9h.04c.1-.59.25-1.2.44-1.88l.83-2.91h1.04l-1.87,5.8h-.96l-.89-2.77c-.2-.65-.37-1.22-.52-1.91h-.02c-.14.7-.32,1.29-.53,1.92l-.94,2.76h-.96l-1.75-5.8h1.08Z"/>
    <path class="dc" d="m126.16,121.2l-.08-.73h-.04c-.32.46-.95.86-1.77.86-1.18,0-1.77-.83-1.77-1.67,0-1.4,1.25-2.17,3.49-2.16v-.12c0-.48-.13-1.34-1.32-1.34-.54,0-1.1.17-1.51.43l-.24-.7c.48-.31,1.18-.52,1.91-.52,1.77,0,2.21,1.21,2.21,2.37v2.17c0,.5.02,1,.1,1.39h-.96Zm-.16-2.96c-1.15-.02-2.46.18-2.46,1.31,0,.68.46,1.01,1,1.01.76,0,1.24-.48,1.4-.97.04-.11.06-.23.06-.34v-1.01Z"/>
    <path class="dc" d="m128.73,117.2c0-.68-.01-1.27-.05-1.81h.92l.04,1.14h.05c.26-.78.9-1.27,1.61-1.27.12,0,.2.01.3.04v1c-.11-.02-.22-.04-.36-.04-.74,0-1.27.56-1.42,1.36-.02.14-.05.31-.05.49v3.09h-1.04v-3.99Z"/>
    <path class="dc" d="m137.55,112.68v7.02c0,.52.01,1.1.05,1.5h-.95l-.05-1.01h-.02c-.32.65-1.03,1.14-1.98,1.14-1.4,0-2.48-1.19-2.48-2.95-.01-1.93,1.19-3.12,2.6-3.12.89,0,1.49.42,1.75.89h.02v-3.47h1.06Zm-1.06,5.07c0-.13-.01-.31-.05-.44-.16-.67-.73-1.22-1.52-1.22-1.09,0-1.74.96-1.74,2.24,0,1.18.58,2.15,1.72,2.15.71,0,1.35-.47,1.55-1.26.04-.14.05-.29.05-.46v-1.01Z"/>
    <path class="dc" d="m146.07,117.41h-3.14v2.91h3.5v.88h-4.55v-8.08h4.37v.88h-3.32v2.55h3.14v.86Z"/>
    <path class="dc" d="m150.96,121.2l-.08-.73h-.04c-.32.46-.95.86-1.77.86-1.18,0-1.77-.83-1.77-1.67,0-1.4,1.25-2.17,3.49-2.16v-.12c0-.48-.13-1.34-1.32-1.34-.54,0-1.1.17-1.51.43l-.24-.7c.48-.31,1.18-.52,1.91-.52,1.77,0,2.21,1.21,2.21,2.37v2.17c0,.5.02,1,.1,1.39h-.96Zm-.16-2.96c-1.15-.02-2.46.18-2.46,1.31,0,.68.46,1.01,1,1.01.76,0,1.24-.48,1.4-.97.04-.11.06-.23.06-.34v-1.01Z"/>
    <path class="dc" d="m153.39,120.12c.31.2.86.42,1.39.42.77,0,1.13-.38,1.13-.86,0-.5-.3-.78-1.08-1.07-1.04-.37-1.54-.95-1.54-1.64,0-.94.76-1.7,2-1.7.59,0,1.1.17,1.43.36l-.26.77c-.23-.14-.65-.34-1.19-.34-.62,0-.97.36-.97.79,0,.48.35.7,1.1.98,1.01.38,1.52.89,1.52,1.75,0,1.02-.79,1.74-2.17,1.74-.64,0-1.22-.16-1.63-.4l.26-.8Z"/>
    <path class="dc" d="m159.46,113.76c.01.36-.25.65-.67.65-.37,0-.64-.29-.64-.65s.28-.66.66-.66.65.29.65.66Zm-1.18,7.44v-5.8h1.06v5.8h-1.06Z"/>
    <path class="dc" d="m161.09,116.96c0-.6-.01-1.09-.05-1.57h.94l.06.96h.02c.29-.55.96-1.09,1.92-1.09.8,0,2.05.48,2.05,2.47v3.47h-1.06v-3.35c0-.94-.35-1.71-1.34-1.71-.7,0-1.24.49-1.42,1.08-.05.13-.07.31-.07.49v3.49h-1.06v-4.23Z"/>
    <path class="dc" d="m172.75,115.39c-.02.42-.05.89-.05,1.6v3.37c0,1.33-.26,2.15-.83,2.65-.56.53-1.38.7-2.11.7s-1.46-.17-1.93-.48l.26-.8c.38.24.98.46,1.7.46,1.08,0,1.87-.56,1.87-2.03v-.65h-.02c-.32.54-.95.97-1.85.97-1.44,0-2.47-1.22-2.47-2.83,0-1.97,1.28-3.08,2.61-3.08,1.01,0,1.56.53,1.81,1.01h.02l.05-.88h.92Zm-1.09,2.29c0-.18-.01-.34-.06-.48-.19-.61-.71-1.12-1.48-1.12-1.01,0-1.73.85-1.73,2.19,0,1.14.58,2.09,1.72,2.09.65,0,1.24-.41,1.46-1.08.06-.18.08-.38.08-.56v-1.04Z"/>
    <path class="dc" d="m174.32,120.12c.31.2.86.42,1.39.42.77,0,1.13-.38,1.13-.86,0-.5-.3-.78-1.08-1.07-1.04-.37-1.54-.95-1.54-1.64,0-.94.76-1.7,2-1.7.59,0,1.1.17,1.43.36l-.26.77c-.23-.14-.65-.34-1.19-.34-.62,0-.97.36-.97.79,0,.48.35.7,1.1.98,1.01.38,1.52.89,1.52,1.75,0,1.02-.79,1.74-2.17,1.74-.64,0-1.22-.16-1.63-.4l.26-.8Z"/>
  </g>
  <g>
    <path class="dc" d="m100.59,137.95c.64-.1,1.39-.17,2.22-.17,1.5,0,2.57.35,3.27,1.01.72.66,1.14,1.6,1.14,2.9s-.41,2.4-1.16,3.14c-.76.76-2,1.16-3.57,1.16-.74,0-1.37-.04-1.9-.1v-7.95Zm1.04,7.15c.26.05.65.06,1.06.06,2.23,0,3.44-1.25,3.44-3.43.01-1.91-1.07-3.12-3.27-3.12-.54,0-.95.05-1.22.11v6.38Z"/>
    <path class="dc" d="m113.85,142.98c0,2.15-1.49,3.08-2.89,3.08-1.57,0-2.78-1.15-2.78-2.99,0-1.94,1.27-3.08,2.88-3.08s2.79,1.21,2.79,2.99Zm-4.61.06c0,1.27.73,2.23,1.76,2.23s1.76-.95,1.76-2.25c0-.98-.49-2.23-1.74-2.23s-1.79,1.15-1.79,2.25Z"/>
    <path class="dc" d="m115.52,140.12l.77,2.95c.17.65.32,1.25.43,1.85h.04c.13-.59.32-1.21.52-1.83l.95-2.96h.89l.9,2.9c.22.7.38,1.31.52,1.9h.04c.1-.59.25-1.2.44-1.88l.83-2.91h1.04l-1.87,5.8h-.96l-.89-2.77c-.2-.65-.37-1.22-.52-1.91h-.02c-.14.7-.32,1.29-.53,1.92l-.94,2.76h-.96l-1.75-5.8h1.08Z"/>
    <path class="dc" d="m123.93,141.69c0-.6-.01-1.09-.05-1.57h.94l.06.96h.02c.29-.55.96-1.09,1.92-1.09.8,0,2.05.48,2.05,2.47v3.47h-1.06v-3.35c0-.94-.35-1.71-1.34-1.71-.7,0-1.24.49-1.42,1.08-.05.13-.07.31-.07.49v3.49h-1.06v-4.23Z"/>
    <path class="dc" d="m130.85,140.12l.77,2.95c.17.65.32,1.25.43,1.85h.04c.13-.59.32-1.21.52-1.83l.95-2.96h.89l.9,2.9c.22.7.38,1.31.52,1.9h.04c.1-.59.25-1.2.44-1.88l.83-2.91h1.04l-1.87,5.8h-.96l-.89-2.77c-.2-.65-.37-1.22-.52-1.91h-.02c-.14.7-.32,1.29-.53,1.92l-.94,2.76h-.96l-1.75-5.8h1.08Z"/>
    <path class="dc" d="m142.43,145.93l-.08-.73h-.04c-.32.46-.95.86-1.77.86-1.18,0-1.77-.83-1.77-1.67,0-1.4,1.25-2.17,3.49-2.16v-.12c0-.48-.13-1.34-1.32-1.34-.54,0-1.1.17-1.51.43l-.24-.7c.48-.31,1.18-.52,1.91-.52,1.77,0,2.21,1.21,2.21,2.37v2.17c0,.5.02,1,.1,1.39h-.96Zm-.16-2.96c-1.15-.02-2.46.18-2.46,1.31,0,.68.46,1.01,1,1.01.76,0,1.24-.48,1.4-.97.04-.11.06-.23.06-.34v-1.01Z"/>
    <path class="dc" d="m145,141.93c0-.68-.01-1.27-.05-1.81h.92l.04,1.14h.05c.26-.78.9-1.27,1.61-1.27.12,0,.2.01.3.04v1c-.11-.02-.22-.04-.36-.04-.74,0-1.27.56-1.42,1.36-.02.14-.05.31-.05.49v3.09h-1.04v-3.99Z"/>
    <path class="dc" d="m153.82,137.41v7.02c0,.52.01,1.1.05,1.5h-.95l-.05-1.01h-.02c-.32.65-1.03,1.14-1.98,1.14-1.4,0-2.48-1.19-2.48-2.95-.01-1.93,1.19-3.12,2.6-3.12.89,0,1.49.42,1.75.89h.02v-3.47h1.06Zm-1.06,5.07c0-.13-.01-.31-.05-.44-.16-.67-.73-1.22-1.52-1.22-1.09,0-1.74.96-1.74,2.24,0,1.18.58,2.15,1.72,2.15.71,0,1.35-.47,1.55-1.26.04-.14.05-.29.05-.46v-1.01Z"/>
    <path class="dc" d="m162.34,142.14h-3.14v2.91h3.5v.88h-4.55v-8.08h4.37v.88h-3.32v2.55h3.14v.86Z"/>
    <path class="dc" d="m167.23,145.93l-.08-.73h-.04c-.32.46-.95.86-1.77.86-1.18,0-1.77-.83-1.77-1.67,0-1.4,1.25-2.17,3.49-2.16v-.12c0-.48-.13-1.34-1.32-1.34-.54,0-1.1.17-1.51.43l-.24-.7c.48-.31,1.18-.52,1.91-.52,1.77,0,2.21,1.21,2.21,2.37v2.17c0,.5.02,1,.1,1.39h-.96Zm-.16-2.96c-1.15-.02-2.46.18-2.46,1.31,0,.68.46,1.01,1,1.01.76,0,1.24-.48,1.4-.97.04-.11.06-.23.06-.34v-1.01Z"/>
    <path class="dc" d="m169.66,144.85c.31.2.86.42,1.39.42.77,0,1.13-.38,1.13-.86,0-.5-.3-.78-1.08-1.07-1.04-.37-1.54-.95-1.54-1.64,0-.94.76-1.7,2-1.7.59,0,1.1.17,1.43.36l-.26.77c-.23-.14-.65-.34-1.19-.34-.62,0-.97.36-.97.79,0,.48.35.7,1.1.98,1.01.38,1.52.89,1.52,1.75,0,1.02-.79,1.74-2.17,1.74-.64,0-1.22-.16-1.63-.4l.26-.8Z"/>
    <path class="dc" d="m175.73,138.49c.01.36-.25.65-.67.65-.37,0-.64-.29-.64-.65s.28-.66.66-.66.65.29.65.66Zm-1.18,7.44v-5.8h1.06v5.8h-1.06Z"/>
    <path class="dc" d="m177.36,141.69c0-.6-.01-1.09-.05-1.57h.94l.06.96h.02c.29-.55.96-1.09,1.92-1.09.8,0,2.05.48,2.05,2.47v3.47h-1.06v-3.35c0-.94-.35-1.71-1.34-1.71-.7,0-1.24.49-1.42,1.08-.05.13-.07.31-.07.49v3.49h-1.06v-4.23Z"/>
    <path class="dc" d="m189.03,140.12c-.02.42-.05.89-.05,1.6v3.37c0,1.33-.26,2.15-.83,2.65-.56.53-1.38.7-2.11.7s-1.46-.17-1.93-.48l.26-.8c.38.24.98.46,1.7.46,1.08,0,1.87-.56,1.87-2.03v-.65h-.02c-.32.54-.95.97-1.85.97-1.44,0-2.47-1.22-2.47-2.83,0-1.97,1.28-3.08,2.61-3.08,1.01,0,1.56.53,1.81,1.01h.02l.05-.88h.92Zm-1.09,2.29c0-.18-.01-.34-.06-.48-.19-.61-.71-1.12-1.48-1.12-1.01,0-1.73.85-1.73,2.19,0,1.14.58,2.09,1.72,2.09.65,0,1.24-.41,1.46-1.08.06-.18.08-.38.08-.56v-1.04Z"/>
    <path class="dc" d="m190.59,144.85c.31.2.86.42,1.39.42.77,0,1.13-.38,1.13-.86,0-.5-.3-.78-1.08-1.07-1.04-.37-1.54-.95-1.54-1.64,0-.94.76-1.7,2-1.7.59,0,1.1.17,1.43.36l-.26.77c-.23-.14-.65-.34-1.19-.34-.62,0-.97.36-.97.79,0,.48.35.7,1.1.98,1.01.38,1.52.89,1.52,1.75,0,1.02-.79,1.74-2.17,1.74-.64,0-1.22-.16-1.63-.4l.26-.8Z"/>
  </g>
</svg>