<?xml version="1.0" encoding="utf-8"?>
<!-- Generator: Adobe Illustrator 27.5.0, SVG Export Plug-In . SVG Version: 6.00 Build 0)  -->
<svg version="1.1" id="Layer_1" xmlns="http://www.w3.org/2000/svg" xmlns:xlink="http://www.w3.org/1999/xlink" x="0px" y="0px"
	 viewBox="0 0 51 51" style="enable-background:new 0 0 51 51;" xml:space="preserve">
<style type="text/css">
	.st0{fill:#FFFFFF;}
</style>
<g id="XMLID_1_">
	<path id="XMLID_79_" class="st0" d="M49.5,13.1c-10.7,0-21.5,0-32.3,0c0-2,0-4.1,0-6.4c10.8,0,21.5,0,32.3,0
		C49.5,8.9,49.5,11.1,49.5,13.1z"/>
	<path id="XMLID_76_" class="st0" d="M49.5,28.6c-10.7,0-21.5,0-32.3,0c0-2,0-4.1,0-6.3c10.8,0,21.5,0,32.3,0
		C49.5,24.4,49.5,26.6,49.5,28.6z"/>
	<path id="XMLID_73_" class="st0" d="M49.5,44.2c-10.7,0-21.5,0-32.3,0c0-2,0-4.1,0-6.3c10.8,0,21.5,0,32.3,0
		C49.5,39.9,49.5,42.1,49.5,44.2z"/>
	<path id="XMLID_70_" class="st0" d="M13.1,4.3c0,3.8,0,7.4,0,11.3c-3.9,0-7.8,0-11.6,0c0-3.8,0-7.5,0-11.3
		C5.4,4.3,9.2,4.3,13.1,4.3z"/>
	<path id="XMLID_67_" class="st0" d="M1.5,19.9c3.8,0,7.5,0,11.5,0c0,3.8,0,7.4,0,11.3c-3.8,0-7.7,0-11.5,0
		C1.5,27.4,1.5,23.6,1.5,19.9z"/>
	<path id="XMLID_64_" class="st0" d="M1.5,35.4c3.8,0,7.7,0,11.6,0c0,3.8,0,7.5,0,11.3c-3.9,0-7.7,0-11.6,0
		C1.5,42.9,1.5,39.1,1.5,35.4z"/>
</g>
</svg>
