<?xml version="1.0" encoding="UTF-8"?>
<svg id="a" data-name="Layer1 Image" xmlns="http://www.w3.org/2000/svg" width="482.93" height="412.56" viewBox="0 0 482.93 412.56">
  <defs>
    <style>
      .b {
        fill: #fff;
        stroke-width: 0px;
      }
    </style>
  </defs>
  <path class="b" d="m212.94,180.52v-33.54h8.36v-26.69h8.53c0-1.48.02-2.64,0-3.79-.4-18.24-.26-36.43,1.82-54.62,2.75-24.04,13.25-44.14,29.62-61.53.14-.15.37-.2.65-.35,2.79,2.47,5.57,5.01,8.43,7.45,1.5,1.29,1.29,2.32.14,3.79-4.08,5.16-8.2,10.31-11.98,15.69-8.28,11.76-11.68,25.28-12.31,39.32-.79,17.56-.62,35.15-.85,52.74,0,.31.12.61.25,1.26h9.41v26.48h7.83v33.8c1.08,0,1.81-.01,2.53,0,31.11.65,62.23,1.12,93.34,2.02,16.08.47,32.14,1.69,47.97,4.96,6.78,1.4,12.7,4.59,18.67,7.82,16.74,9.08,31,20.78,40.42,37.68,7.42,13.31,12.15,27.56,15.05,42.48,4.71,24.16,1.2,47.41-7.44,70.14-3.55,9.34-6.95,18.65-12.84,26.99-10.9,15.44-24.86,26.52-42.89,32.36-23.11,7.49-46.61,10.1-70.57,4.77-17.33-3.86-31.69-13.37-44.99-24.64-3.19-2.7-6.09-5.75-9.23-8.52-.72-.63-1.86-1.09-2.81-1.11-31.56-.47-63.12-.89-94.68-1.21-1.31-.01-2.84.8-3.92,1.67-7.66,6.14-15,12.72-22.88,18.56-20.15,14.93-43.11,19.59-67.74,17.64-11.45-.9-22.66-3.05-33.64-6.46-19.81-6.15-35.09-18.07-46.32-35.43-8.56-13.24-13.22-28.06-16.96-43.07-9.34-37.46-1.68-72.05,19.66-103.78,6.41-9.52,15.64-16.21,24.96-22.82,16.62-11.78,35.43-16.03,55.24-16.75,35.31-1.29,70.64-2.22,105.96-3.29.95-.03,1.89,0,3.2,0Zm-6.85,4.67c-.01-.35.01.35,0,0-35.99,1.27-72.58,1.91-108.83,3.85-13.04.7-25.78,3.02-37.42,10.07-12.39,7.51-24.71,15.12-32.84,27.32-21.01,31.5-28.04,65.75-17.88,102.65,4.34,15.76,9.33,31.36,19.73,44.61,8.95,11.4,19.77,20.07,33.35,25.32,12.49,4.83,25.45,7.48,38.75,8.57,23.73,1.94,45.88-2.47,65.27-16.96,7.77-5.81,15.11-12.21,22.53-18.48,1.99-1.69,3.88-2.6,6.61-2.56,32.31.51,64.63.87,96.94,1.33.9.01,1.97.5,2.64,1.12,3.74,3.42,7.22,7.14,11.1,10.4,12.34,10.38,25.65,19.14,41.65,22.78,23.53,5.35,46.59,2.71,69.25-4.77,16.12-5.32,28.79-15.2,38.81-28.89,6.03-8.24,9.56-17.5,13.19-26.84,9.84-25.35,12.54-51.15,5.41-77.67-4.7-17.48-11.45-33.9-23.94-47.44-9.76-10.58-21.94-17.72-34.59-24.17-2.19-1.11-4.19-1.94-6.88-2.65-12.3-3.27-25.18-4.27-37.85-4.9-27.84-1.4-55.71-2.15-83.58-2.58-27.12-.41-54.26-.09-81.39-.09Zm11.46-4.91h40.55v-29h-7.58v-26.25h-24.87v26.49h-8.1v28.75Zm23.17-60.1c0-2.24-.03-4.17,0-6.09.24-15.62.17-31.26.82-46.87.79-18.79,6.55-35.93,18.7-50.63,1.84-2.23,3.58-4.54,5.55-7.04-1.35-1.1-2.54-2.07-3.74-3.04-11.58,12.87-20.18,26.95-23.7,43.81-4.78,22.89-4.59,46.04-3.8,69.23,0,.18.23.35.42.62h5.74Z"/>
  <path class="b" d="m32.26,302.92c-8.99,4.91-15.05,4.42-19.45-1.58-3.84-5.23-3.26-12.67,1.33-17.17,5.11-5,11.62-4.67,18.8.96,5.78-41.09,46.77-72.23,91.44-64.21,38.51,6.91,67.77,41.97,63.86,83.91-3.66,39.27-36.34,68.47-74.11,70.23-41.02,1.92-78.43-28.78-81.87-72.14Zm63.83,55.6c0,2.7.1,5.4-.03,8.09-.1,1.99.55,2.79,2.63,3.09,15.27,2.2,29.87.21,43.88-6.36,2.32-1.09,3.31-2.35,3-4.88-2.22-18.1-9.48-33.65-23.34-45.82-.63-.55-2.09-.39-3.11-.23-3.17.5-6.29,1.49-9.47,1.64-2.03.09-2.96.58-3.86,2.39-6.63,13.26-10.16,27.21-9.7,42.08Zm54.5.04c6.7-3.55,11.74-9.04,16.56-14.6,7.99-9.2,12.88-20.01,15.52-31.93.72-3.24-.08-4.99-2.78-6.57-14.6-8.52-30.15-11.92-46.92-8.89-.65.12-1.48.6-1.77,1.15-1.95,3.76-3.77,7.58-5.71,11.54,14.59,12.85,21.91,29.8,25.1,49.31Zm-60.67-56.45c-2.84,1.3-6.7,2.53-9.98,4.65-12.46,8.04-22.09,18.51-27.22,32.72-.65,1.81-.39,2.94.76,4.32,8.43,10.04,18.71,17.49,31.02,22.08,2.19.82,4.45,1.46,6.43,2.11.71-9.62.55-19.11,2.31-28.22,1.78-9.2,5.46-18.03,8.23-26.76-3.3-3.11-7-6.6-11.55-10.89Zm93.94.28c1.04-18-3.59-33.87-13.98-48.05-.42-.57-1.7-.83-2.52-.75-16.93,1.7-29.96,10.24-40.38,23.23-.52.64-.71,2.05-.37,2.79,1.81,3.94,3.84,7.78,6.1,12.26,17.48-3.02,34.6.77,51.15,10.53Zm-94.31-12.3c-5.9-3.53-12.42-4.43-18.98-5-10.61-.91-21.17-1.21-31.09,3.8-1.62.82-2.52,1.69-2.45,3.62.15,3.98-.16,8,.2,11.96,1.05,11.67,4.81,22.45,11.41,32.62,8.2-19.11,21.44-32.61,40.92-39.7v-7.3Zm18.28-65.82c2.57,7.57,5.35,14.76,7.41,22.15,1.96,7.03,3.67,14.22,2.57,21.65-.73,4.9-.78,4.9,3.73,7.17.17.08.4.03.73.05,10.99-14.08,24.89-23.65,43.54-26.24-16.26-17.23-35.51-25.34-57.98-24.78Zm-47.44,19.45c18.72,3.94,29.62,16.77,38.66,30.89,4.65-1.07,8.89-2.05,14.16-3.27,0-3.62.63-7.88-.13-11.88-1.55-8.12-3.7-16.15-5.95-24.11-.77-2.73-2.53-5.2-3.98-7.72-1.27-2.22-3.19-2.84-5.77-2.33-12.31,2.42-23.44,7.34-33.22,15.23-1.15.93-2.25,1.91-3.77,3.19Zm35.16,34.15c-1.23-1.97-2.43-4.14-3.87-6.13-8.2-11.35-17.78-20.82-32.29-23.62-2.02-.39-3.37-.15-4.77,1.51-7.47,8.89-12.83,18.83-15.58,30.13-.34,1.4-.57,2.82-1,4.94,8.96-4.47,17.84-4.93,26.85-4.51,8.9.42,17.74,1.18,25.64,5.2,1.72-2.57,3.33-4.97,5.02-7.51Zm31.32,15.76c.38-9.05-6.68-16.56-15.89-16.89-9.08-.33-16.63,6.7-17,15.85-.37,9.08,6.61,16.63,15.77,17.05,9.25.42,16.72-6.56,17.11-16.01Zm-95.91.02c.07-4.67-3.44-8.43-7.94-8.51-4.5-.08-8.13,3.57-8.2,8.25-.07,4.67,3.44,8.43,7.94,8.5,4.51.07,8.13-3.56,8.2-8.24Z"/>
  <path class="b" d="m449.87,285.31c7.1-5.84,13.88-6.16,19-1.07,4.74,4.71,5.1,12.51.82,17.69-4.58,5.55-11.42,5.89-19.04.75-2.69,26.38-14.86,47-37.41,61.01-16.65,10.34-34.93,13.61-54.16,10.28-38.63-6.71-64.74-39.88-64.68-76.01.08-44.17,33.62-74.01,69.38-77.79,43.11-4.56,79.5,25.14,86.09,65.15Zm-63.02,73.34c.47-14.76-2.95-28.62-9.51-41.8-.95-1.92-1.79-2.86-4.26-2.81-2.94.06-6.01-.6-8.8-1.59-1.97-.69-3.04-.4-4.52.88-11.13,9.66-17,22.36-20.95,36.11-.94,3.26-1.15,6.78-1.3,10.2-.05,1.02.99,2.6,1.95,3.09,14.32,7.27,29.49,9.32,45.29,6.77.81-.13,1.91-1.55,2-2.45.26-2.78.1-5.6.1-8.4Zm-29.08-49.68c-1.7-2.76-3.67-5.06-4.6-7.72-1.11-3.18-2.46-4.6-6.13-5.09-16.49-2.22-31.45,1.5-45.36,10.29-1.78,1.12-2,2.49-1.62,4.39,3.8,19.17,13.84,34.33,29.42,45.96.91.68,1.91,1.24,2.88,1.86,3.13-19.52,10.5-36.54,25.41-49.69Zm33.48,58.86c.9-.07,1.44-.03,1.93-.17,14.82-4.38,27.12-12.57,36.77-24.62.6-.74.56-2.41.21-3.44-5-14.51-14.9-25.07-27.61-33.14-3.26-2.07-7.14-3.16-9.6-4.22-4.53,4.26-8.16,7.67-12.22,11.49,9.22,16.31,11.69,34.8,10.53,54.09Zm-41-75.94c2.25-4.48,4.29-8.32,6.07-12.27.36-.79.05-2.32-.53-3.03-10.07-12.48-22.63-20.79-38.86-22.95-2.31-.31-3.71.16-5.08,2.18-6.87,10.1-11.16,21.17-12.47,33.28-.46,4.27-.07,8.64-.07,13.14,16.34-9.49,33.42-13.48,50.94-10.35Zm43.16,5.55c19.55,7.08,32.74,20.6,40.86,39.5,8.27-11.49,12.64-28.47,11.7-44.23-.12-2-.84-3-2.59-3.88-9.95-4.95-20.5-4.65-31.11-3.72-6.56.58-13.08,1.48-18.86,5v7.33Zm-17.23-73.14c-23.53-.6-42.84,7.52-59.03,24.79,18.78,2.55,32.65,12.26,43.74,26.42.85-.43,1.48-.88,2.19-1.07,2.53-.71,3.23-1.94,2.46-4.7-.74-2.63-.87-5.59-.54-8.31,1.54-12.77,4.34-25.2,11.19-37.12Zm46.36,19.43c-10.78-9.68-22.71-15.51-36.24-18.28-3.09-.63-5.31-.1-6.83,2.65-1.3,2.35-2.87,4.65-3.62,7.18-2.14,7.22-4.12,14.5-5.78,21.85-1.12,4.96-1.29,10.04.58,14.41,4.58,1.06,8.83,2.05,13.28,3.08,9.09-14.23,19.98-26.93,38.61-30.89Zm22.19,40.39c-.08-.72-.09-1.24-.19-1.74-2.63-12.61-8.27-23.73-16.88-33.29-.75-.83-2.71-1.13-3.95-.89-17.53,3.41-27.7,15.74-36.42,29.78,1.07,1.38,1.99,2.44,2.75,3.6.82,1.25,1.49,2.6,2.03,3.55,17.38-5.95,34.67-7.38,52.67-1.02Zm-88.67,8.93c.12,9.49,7.3,16.69,16.56,16.62,9.13-.07,16.4-7.38,16.38-16.49-.01-9.23-7.54-16.62-16.75-16.45-9.04.17-16.31,7.49-16.19,16.31Zm112.08.6c.07-4.67-3.45-8.43-7.95-8.5-4.51-.07-8.12,3.58-8.19,8.26-.07,4.68,3.44,8.42,7.95,8.49,4.51.07,8.12-3.57,8.19-8.25Z"/>
  <path class="b" d="m196.21,316.29v-44.94h91.05v44.94h-91.05Zm4.54-4.53h81.97v-35.88h-81.97v35.88Z"/>
  <path class="b" d="m23,299.02c2.8-.06,5.08-2.4,5.06-5.2-.02-2.79-2.33-5.11-5.13-5.14-2.91-.03-5.34,2.46-5.22,5.37.11,2.8,2.49,5.03,5.29,4.97Z"/>
  <path class="b" d="m460.2,299.02c2.8-.07,5.07-2.42,5.04-5.22-.03-2.79-2.36-5.1-5.15-5.12-2.92-.01-5.32,2.48-5.2,5.39.12,2.8,2.51,5.02,5.31,4.95Z"/>
  <path class="b" d="m23,299.02c-2.8.06-5.18-2.17-5.29-4.97-.11-2.91,2.31-5.4,5.22-5.37,2.8.03,5.11,2.34,5.13,5.14.02,2.8-2.25,5.14-5.06,5.2Z"/>
  <path class="b" d="m460.2,299.02c-2.8.07-5.19-2.15-5.31-4.95-.12-2.91,2.28-5.4,5.2-5.39,2.79.01,5.12,2.32,5.15,5.12.03,2.79-2.24,5.15-5.04,5.22Z"/>
</svg>