<?xml version="1.0" encoding="UTF-8"?>
<svg id="a" data-name="Layer 1" xmlns="http://www.w3.org/2000/svg" width="451.99" height="471.98" viewBox="0 0 451.99 471.98">
  <defs>
    <style>
      .b {
        fill: #fff;
        stroke-width: 0px;
      }
    </style>
  </defs>
  <path class="b" d="M158.66,471.98h-93.14c-.69-.28-1.35-.71-2.06-.83C26.06,465.21.13,435.19.09,397.22-.02,301.96-.04,206.69.1,111.43c.06-42.11,32.42-74.31,74.51-74.62,12.6-.09,25.21-.2,37.8.09,4,.09,5.79-1.14,7.37-4.82,6.88-15.95,18.85-26.84,35.88-30.11C166.84-.17,178.55-.02,190.02.02c24.33.09,41.92,11.11,51.64,33.75,1.02,2.38,2.26,3.1,4.77,3.08,12.91-.12,25.82-.2,38.73,0,5.35.09,10.79.41,16.02,1.47,34.78,7.04,59.05,36.51,59.4,72.19.22,22.58.05,45.17.05,67.76,0,1.62,0,3.24,0,5.18,13.23,0,25.82-.3,38.39.06,25.88.76,48.89,20.84,51.85,46.37,1.57,13.51.91,27.28,1.02,40.94.14,17.36.15,34.73-.01,52.09-.13,13.52-12.45,22.32-24.7,17.91-7.59-2.73-12.11-9.61-12.12-18.8-.04-27.35.03-54.7-.04-82.05-.03-11.99-7.65-19.68-19.59-19.69-43.49-.06-86.98-.06-130.47,0-11.93.02-19.56,7.71-19.57,19.7-.05,58.39-.05,116.78,0,175.16,0,12.27,7.61,19.9,19.84,19.91,43.34.04,86.67.04,130.01-.03,11.64-.02,18.93-7,19.82-18.61.86-11.27,9.02-18.81,19.65-18.17,10.27.61,17.6,9.02,17.13,20.15-.72,17.08-7.96,30.95-21.21,41.74-8.08,6.57-17.67,9.54-27.57,11.83h-145.7c-.56-.24-1.1-.59-1.68-.7-29.03-5.43-47.17-27.09-47.19-56.55-.04-58.08-.05-116.17,0-174.25.03-33.01,24-56.99,56.96-57.08,17.67-.05,35.35,0,53.02,0,1.64,0,3.27,0,5.01,0,.12-1.1.24-1.69.24-2.28,0-23.51.02-47.02-.03-70.53,0-2.29-.36-4.6-.74-6.87-2.79-16.92-19.42-30.66-36.1-29.54,0,1.64,0,3.3,0,4.96,0,15.83.05,31.65-.02,47.48-.06,12.24-7.63,19.86-19.88,19.87-57.17.04-114.34.05-171.51,0-12.2-.01-19.7-7.68-19.75-19.99-.06-15.83-.02-31.65-.02-47.48,0-1.65,0-3.31,0-5.1-1.94,0-3.45-.14-4.93.02-20.03,2.24-33.73,17.23-33.76,37.66-.1,95.12-.1,190.23,0,285.35.02,22.23,15.89,37.99,38.14,38.12,25.36.15,50.72.03,76.07.04,1.84,0,3.71-.09,5.53.14,7.51.95,12.9,4.92,15.51,12.03,2.62,7.13,1.16,13.83-4.25,19.09-2.53,2.46-6.18,3.78-9.32,5.62ZM112.73,109.3h136.85v-35.63c-3.6,0-6.82,0-10.05,0-3.38,0-6.76.04-10.13-.01-9.4-.16-15.93-5.15-18.56-14.23-.9-3.09-1.54-6.25-2.39-9.35-2.27-8.33-8.49-13.16-17.12-13.28-4.76-.06-9.53.21-14.28-.05-18.12-1-23.39,4.23-26.84,21-2.25,10.94-9.1,15.87-20.44,15.91-5.63.02-11.25,0-17.04,0v35.63Z"/>
  <path class="b" d="M329.96,294.03c-9.37,0-18.75.07-28.12-.02-11.36-.1-19.51-7.78-19.57-18.31-.07-10.54,8.07-18.46,19.34-18.52,19.05-.1,38.1-.1,57.16,0,11.27.06,19.41,7.99,19.34,18.53-.07,10.52-8.21,18.2-19.57,18.3-9.53.08-19.05.02-28.58.02Z"/>
  <path class="b" d="M330.11,358.57c-9.37,0-18.74.06-28.12-.01-11.61-.09-19.84-7.91-19.73-18.61.11-10.52,8.26-18.18,19.65-18.23,18.9-.08,37.8-.08,56.69,0,11.33.05,19.47,7.84,19.5,18.37.02,10.53-8.12,18.35-19.42,18.46-9.52.1-19.05.02-28.58.02Z"/>
</svg>